<?xml version="1.0" encoding="UTF-8"?>
<svg width="100%" height="100%" viewBox="0 0 16 16" version="1.1" xmlns="http://www.w3.org/2000/svg" xmlns:xlink="http://www.w3.org/1999/xlink">
    <!-- Generator: Sketch 53.2 (72643) - https://sketchapp.com -->
    <title>Icon / Checkbox / Checked</title>
    <desc>Created with Sketch.</desc>
    <g id="Icon-/-Checkbox-/-Checked" stroke="none" stroke-width="1" fill="none" fill-rule="evenodd">
        <g id="checked" transform="translate(3.000000, 4.000000)" fill="#FFFFFF">
            <path d="M0.126923077,4.4 C0.0423076923,4.32 0,4.2 0,4.12 C0,4.04 0.0423076923,3.92 0.126923077,3.84 L0.719230769,3.28 C0.888461538,3.12 1.14230769,3.12 1.31153846,3.28 L1.35384615,3.32 L3.68076923,5.68 C3.76538462,5.76 3.89230769,5.76 3.97692308,5.68 L9.64615385,0.12 L9.68846154,0.12 L9.68846154,0.12 C9.85769231,-0.04 10.1115385,-0.04 10.2807692,0.12 L10.8730769,0.68 C11.0423077,0.84 11.0423077,1.08 10.8730769,1.24 L10.8730769,1.24 L4.10384615,7.88 C4.01923077,7.96 3.93461538,8 3.80769231,8 C3.68076923,8 3.59615385,7.96 3.51153846,7.88 L0.211538462,4.52 L0.126923077,4.4 Z" id="Path"></path>
        </g>
    </g>
</svg>