<?xml version="1.0" encoding="utf-8"?>
<!-- Generator: Adobe Illustrator 23.0.3, SVG Export Plug-In . SVG Version: 6.00 Build 0)  -->
<svg version="1.1" id="Layer_1" xmlns="http://www.w3.org/2000/svg" xmlns:xlink="http://www.w3.org/1999/xlink" x="0px" y="0px"
	 viewBox="0 0 150 150" style="enable-background:new 0 0 150 150;" xml:space="preserve">
<style type="text/css">
	.st0{fill:#FFFFFF;}
	.st1{clip-path:url(#SVGID_2_);}
	.st2{fill:url(#SVGID_3_);}
</style>
<title>PITKO - Logo_2019</title>
<path class="st0" d="M132.2,116.1v3.2c0,0.4-0.3,0.8-0.7,0.9l-3,0.8c-0.3,0.1-0.7,0-0.9-0.2c-1.1-0.9-2.8-0.7-3.8,0.3
	c-2.5,2.7-5.3,5.3-8.2,7.6c-1.1,0.9-1.4,2.5-0.6,3.7c0.2,0.3,0.2,0.6,0.1,0.9l-1.1,2.9c-0.1,0.4-0.6,0.7-1,0.6l-3.1-0.2
	c-0.3,0-0.6-0.2-0.8-0.5c-0.8-1.2-2.3-1.7-3.6-1c-3.3,1.7-6.8,3.1-10.4,4.3c-1.4,0.4-2.2,1.9-1.9,3.3c0.1,0.3,0,0.6-0.2,0.9
	l-2.1,2.4c-0.3,0.3-0.7,0.4-1.1,0.3l-2.9-1.3c-0.3-0.1-0.5-0.4-0.6-0.7c-0.3-1.4-1.6-2.4-3.1-2.2c-3.7,0.5-7.4,0.6-11.2,0.5
	c-1.4-0.1-2.7,1-2.9,2.4c0,0.3-0.2,0.6-0.5,0.8l-2.8,1.6c-0.4,0.2-0.8,0.1-1.1-0.1l-2.3-2.2c-0.2-0.2-0.3-0.5-0.3-0.9
	c0.2-1.4-0.7-2.8-2.1-3.1c-1.6-0.4-6.2-0.7-6.9-0.4c2.2,0.7,4.4,1.4,6.6,1.9c0.7,0.1,1.1,0.8,1,1.4c-0.1,0.8,0.2,1.6,0.7,2.1
	l2.3,2.2l0.2,0.2h3l2.4-1.4c0.7-0.4,1.2-1.1,1.3-1.9c0.1-0.7,0.7-1.1,1.3-1.1c3.8,0.2,7.6,0,11.4-0.5c0.7-0.1,1.3,0.4,1.4,1
	c0.2,0.8,0.7,1.4,1.4,1.8l2.9,1.3c1,0.5,2.2,0.2,2.9-0.6l2.1-2.4c0.5-0.6,0.7-1.4,0.5-2.2c-0.2-0.7,0.2-1.3,0.9-1.5
	c3.6-1.2,7.1-2.6,10.5-4.4c0.6-0.3,1.3-0.1,1.7,0.5c0.4,0.7,1.1,1.1,1.9,1.1l3.1,0.3c1.1,0.1,2.1-0.6,2.5-1.6l1.1-2.9
	c0.3-0.7,0.2-1.6-0.2-2.2c-0.4-0.6-0.2-1.3,0.3-1.7c3-2.3,5.8-4.9,8.4-7.7c0.5-0.5,1.2-0.5,1.8-0.1c0.6,0.5,1.4,0.6,2.2,0.4l3-0.8
	c1-0.3,1.8-1.2,1.8-2.3c-0.4-1.2-0.9-2.3-1.5-3.3c0,0.1,0,0.1,0,0.2 M134.3,97.4h-0.6c-0.4,0-0.9,0-1.3,0l-0.9,0.1
	c-0.5,0-1,0.1-1.5,0.2l-1,0.1c-0.6,0.1-1.2,0.2-1.9,0.3l-0.9,0.2c-1,0.2-2,0.4-3,0.6c-9.3,2-18.5,4.7-27.4,8
	c-10.4,3.7-19.9,7.3-28.3,10.6s-16.9,7-25.3,10.6c-1.1,0.4-2.1,1-3.1,1.6c-0.7,0.5-1,1.3-0.6,2.1c0.2,0.4,0.4,0.8,0.6,1.1
	c0.8,1.3,1.9,2.5,3.1,3.4c0.3,0.2,0.6,0.4,0.9,0.6l0.2,0.1c0.2,0.1,0.4,0.2,0.6,0.3c0.1,0,0.1,0.1,0.2,0.1c0.2,0.1,0.5,0.1,0.7,0.1
	c0.3,0,0.5-0.1,0.8-0.1c10.1-4.4,18.6-8,25.5-10.8s14.1-5.7,21.6-8.4s13.7-4.8,18.7-6.2c0.7-0.2,1.4-0.4,2.1-0.5l0.7-0.2l1.4-0.3
	l0.7-0.2l1.4-0.3l0.7-0.1l1.6-0.3l0.3-0.1l1.9-0.3h0.5l1.3-0.2h0.6l1.2-0.1c0.2,0,0.4,0,0.6,0h1.2h0.5c0.6,0,1.2,0,1.8,0.1h0.4
	c0.6,0,1.1,0.1,1.6,0.2h0.1c0.5,0.1,1,0.2,1.5,0.3l0.3,0.1c0.5,0.1,0.9,0.3,1.4,0.5c1.2,0.6,2.4,1.3,3.4,2.3l1.9,1.6
	c0.1,0,0.1,0.1,0.2,0.1c0.1,0,0.1,0,0.2,0l0,0c0.1,0,0.2-0.1,0.3-0.2l0.1-0.1l0.2-0.2l0.1-0.1c0.1-0.1,0.1-0.1,0.2-0.2l0.2-0.2
	l0.2-0.3l0.2-0.2l0.2-0.3l0.2-0.2l0.2-0.3l0.2-0.3c0.1-0.1,0.1-0.2,0.2-0.3l0.2-0.3l0.2-0.3c0.1-0.1,0.1-0.2,0.2-0.3
	c0.1-0.1,0.1-0.2,0.2-0.4s0.1-0.2,0.1-0.3l0.2-0.3l0.2-0.4c0.1-0.1,0.1-0.3,0.2-0.4s0.1-0.2,0.1-0.3s0.1-0.3,0.1-0.4l0.1-0.3
	c0-0.1,0.1-0.3,0.1-0.4s0-0.1,0-0.2c0-0.2,0.1-0.4,0.1-0.6c0.3-4-1.7-6.9-5.9-8.6c-0.4-0.2-0.8-0.3-1.1-0.4c-0.1,0-0.3-0.1-0.4-0.1
	l-0.9-0.2l-0.6-0.1c-0.3,0-0.6-0.1-1-0.1h-0.7L134.3,97.4z M60.3,80.9H60c-0.4,0-0.7,0.1-1.1,0.2c-1,0.2-1.5,1.6-1.7,4.1
	c-0.2,3.8-0.1,7.7,0.2,11.5c0,0.8,0,1.5,0.1,2.2c0,0.2,0,0.5,0,0.7c0,0.5,0.1,0.9,0.1,1.4c0,0.3,0,0.5,0.1,0.8s0.1,0.8,0.1,1.2
	s0.1,0.5,0.1,0.7s0.1,0.7,0.1,1s0.1,0.5,0.1,0.7s0.1,0.6,0.2,0.9s0.1,0.4,0.1,0.6s0.1,0.6,0.2,0.8s0.1,0.4,0.1,0.6s0.1,0.5,0.2,0.7
	s0.1,0.3,0.2,0.5l0.2,0.6c0.1,0.1,0.1,0.3,0.2,0.4l0.3,0.6c0.1,0.1,0.1,0.2,0.2,0.3c0.1,0.2,0.2,0.3,0.3,0.5l0.2,0.3
	c0.1,0.2,0.3,0.3,0.4,0.5c0,0,0.1,0.1,0.1,0.1c0.2,0.2,0.4,0.3,0.6,0.5l0.2,0.1c0.2,0.1,0.3,0.2,0.5,0.2l0.3,0.1l0.4,0.1h0.3h0.4
	c0.3,0,0.7,0,1-0.1c1.9-0.4,3.7-1.4,5-2.9c1.2-1.1,2.2-2.5,2.8-4c0.1-0.2,0.2-0.5,0.3-0.8c0-0.1,0-0.1,0-0.2c0-0.1,0-0.2,0-0.4
	c0,0,0-0.1-0.1-0.1c0-0.1-0.1-0.1-0.2-0.2c-0.1,0-0.1,0-0.2,0c-0.1,0-0.3,0-0.4,0c-0.3,0.1-0.7,0.1-1,0.2h-0.3c-0.2,0-0.4,0-0.6,0
	c-0.2,0-0.3,0-0.5,0h-0.2c-0.2,0-0.3-0.1-0.5-0.2c-1-0.7-1.6-1.8-1.7-3c-0.3-1.8-0.4-3.7-0.4-5.5v-3.8v-3.6c0-1.8-0.2-3.5-0.4-5.3
	c-0.4-1.2-1.3-2.1-2.5-2.4c-0.4-0.1-0.7-0.3-1.1-0.4l-0.3-0.1c-0.4-0.1-0.7-0.2-1.1-0.2l0,0c-0.2,0-0.5,0-0.7,0L60.3,80.9
	 M62.9,66.2h-0.5c-0.5,0.1-1.1,0.2-1.8,0.3c-3.1,0.7-5,3.3-3.8,6.9c0.5,1.6,1.5,2.9,2.9,3.8l0.2,0.1c0.2,0.1,0.3,0.2,0.5,0.3
	l0.3,0.1l0.5,0.1c0.1,0,0.2,0,0.3,0c0.2,0,0.4,0,0.6,0c1.1,0,2.3-0.9,3.6-2.4c1-1.2,1.7-2.7,2.2-4.2c0.4-2.2,0-3.7-1.3-4.5
	c-0.3-0.2-0.6-0.3-1-0.4l-0.1-0.1c-0.4-0.1-0.8-0.1-1.2-0.2h-0.4C63.5,66.1,63.2,66.1,62.9,66.2 M35.9,79.4L35.9,79.4
	c0.7,0.3,1.3,0.7,1.9,1.1c2.6,1.8,4.2,4.6,4.8,8.4c0.8,4-0.3,8.2-2.9,11.3c-1.2,1.4-2.6,2.6-4.3,3.5c-0.2,0.1-0.4,0.2-0.5,0.2h-0.3
	c-0.1,0-0.3,0-0.4,0H34c-0.1,0-0.3,0-0.4-0.1h-0.1c-0.2-0.1-0.4-0.1-0.5-0.2h0c-0.2-0.1-0.3-0.2-0.5-0.3l0-0.1
	c-0.1-0.1-0.2-0.2-0.3-0.4c0,0-0.1-0.1-0.1-0.2s-0.1-0.3-0.2-0.4s0-0.1,0-0.2c-0.1-0.2-0.1-0.4-0.1-0.6c-0.1-5.3-0.4-14.8-0.6-20.2
	c0-0.1,0-0.2,0-0.3c0-0.4-0.4-0.7-0.8-0.7c-2.4,0.2-4.7,0.6-7.1,1.1c-0.2,0-0.5-0.1,0-0.3C30.5,77.4,35.9,79.4,35.9,79.4z
	 M130.2,70.5c-0.1,0-0.2,0-0.3,0c-0.2,0-0.4-0.1-0.6-0.1l-0.3-0.1c-0.2-0.1-0.3-0.2-0.5-0.3l-0.2-0.2c-0.2-0.2-0.4-0.4-0.6-0.7
	c-0.1-0.1-0.1-0.2-0.2-0.3c0,0,0-0.1,0-0.1c0-0.1,0-0.1,0-0.2v-0.1c0-0.1,0-0.1,0-0.2v-0.1c0-0.1,0-0.1,0.1-0.2l0.1-0.1
	c0-0.1,0.1-0.1,0.1-0.1l0.1-0.1c0,0,0.1-0.1,0.1-0.1l0.1-0.1c0.1,0,0.1,0,0.2,0h0.1c0.1,0,0.2,0,0.3,0l0,0c0.2,0.1,0.4,0.2,0.6,0.3
	c0.6,0.4,0.9,1.1,1.5,2.8l0,0c-0.2,0-0.3,0-0.5,0L130.2,70.5 M94.8,54.5c0.5-0.3,0.8-0.8,0.8-1.3c0.1-1.5,0.3-3,0.5-4.5
	c0.5-4.4,1.4-4.8,1.9-5c0.1,0,0.2-0.1,0.3-0.1h0.1c0.2,0,0.3,0,0.5,0H99h0.4h0.1l0.3,0.1h0.2l0.3,0.1l0.1,0.1
	c0.1,0.1,0.2,0.2,0.3,0.3c0.6,1,0.9,2.1,0.8,3.3c0,4-1.8,6.7-5.3,8c-2.1,0.6-4.3,0.9-6.5,0.9c-0.1,0-0.2-0.1-0.2-0.2
	c0-0.1,0.1-0.2,0.2-0.2C89.7,56,93.2,55.2,94.8,54.5z M98.3,37.5c-2.1,0.1-4.7,1.6-6.7,4.9c-1.7,2.8-1.6,8.2-2.6,13.1
	c0,0.1-0.1,0.3-0.2,0.4c0,0-0.1,0.1-0.1,0.1c-0.1,0.1-0.1,0.1-0.2,0.2l-0.1,0.1c-0.1,0-0.2,0.1-0.2,0.1h-0.2c-0.1,0-0.2,0-0.3,0
	L81.6,56v-1c0-1.7-0.1-3.3-0.3-5c-0.4-1.1-1.2-2-2.4-2.3c-0.5-0.2-0.9-0.3-1.4-0.4c-0.1,0-0.3,0-0.4-0.1c-0.3-0.1-0.7-0.1-1-0.1
	h-0.5h-0.3c-0.3,0-0.7,0.1-1,0.1c-0.9,0.2-1.4,1.5-1.6,3.9c0,0-0.1,1.7-0.1,2.5c0,0.3,0.2,0.6,0.6,0.6c2.4,0.3,4.7,0.8,7,1.4
	c0.1,0,0.1,0.2,0.1,0.2c0,0.1-0.2,0.1-0.2,0.1l0,0c-4-0.3-9.8-0.5-11.5-0.5c-0.3,0-0.5,0-0.9,0l-4.1-0.1h-0.4l-3.3-0.1H59h-3.4h-0.8
	h-1.9h-0.9c-0.6,0-1.2,0-1.7,0.1h-0.9l-1.8,0.1h-0.6c-0.8,0.1-1.5,0.1-2.3,0.2c-0.2,0-0.3,0-0.5,0.1L42.5,56l-0.7,0.1l-1.3,0.3
	l-0.7,0.2c-0.4,0.1-0.9,0.2-1.3,0.3L37.9,57c-0.6,0.2-1.2,0.4-1.7,0.6l0,0c-5.4,2-9.2,6.1-11.6,12.3c-0.3,0.7-0.5,1.4-0.7,2.2
	c-0.3,0.8-0.9,1.4-1.6,1.6c-2.7,0.9-5.4,2-7.9,3.4c-4.3,2.4-7.2,5-8.8,8C4.4,87,4,89.1,4.4,91.1c0.5,1.6,1.4,3.1,2.6,4.3
	c0.1,0.1,0.2,0.2,0.3,0.3c1.3,1.1,2.7,1.9,4.3,2.4c0.3,0.1,0.7,0.1,1,0.2h0.3h0.5h0.1c0.2,0,0.3,0,0.5-0.1l0,0
	c0.1,0,0.2-0.1,0.2-0.2c0.1-0.9,0.2-1.7,0.3-2.6c0-1.5,0.2-2.9,0.5-4.3c0.7-3.1,2.4-5.9,4.9-7.9l2-1.6c-0.4,4.3-0.4,8.7-0.3,13
	c0,2,0.2,4.4,0.3,7.2s0.4,5.2,0.4,7s1.6,23.5-1.6,24.9c-0.2,0.1-0.5,0.2-0.7,0.2h-0.2c-0.2,0-0.4,0-0.6,0h-0.2c-0.3,0-0.7,0-1-0.1
	l-0.1,0c-0.3-0.1-0.7-0.2-1-0.3l0,0c-0.4-0.1-0.7-0.2-1.1-0.4l-0.2-0.1c-0.4-0.1-0.7-0.3-1-0.5l-0.2-0.1c-0.3-0.2-0.7-0.4-1-0.5l0,0
	c-0.3-0.2-0.6-0.4-0.9-0.6l-0.2-0.1l-0.8-0.5l-0.2-0.1l-0.6-0.4c-0.1-0.1-0.2-0.1-0.4-0.1h-0.1c-0.1,0-0.2,0.1-0.2,0.1
	c0,0-0.1,0.1-0.1,0.1c-0.1,0.1-0.2,0.2-0.2,0.3c0,0.1-0.1,0.1-0.1,0.2c-0.1,0.3-0.2,0.5-0.3,0.8c-0.5,1.9-0.5,3.9-0.1,5.8
	c0.5,1.6,1.3,3.1,2.5,4.2l0.4,0.5l0.1,0.1l0.5,0.5l0.1,0.1c0.2,0.2,0.4,0.3,0.6,0.5l0.1,0.1c0.2,0.1,0.5,0.3,0.7,0.4h0.1
	c0.3,0.1,0.6,0.3,0.9,0.4l0.2,0.1c0.3,0.1,0.7,0.2,1,0.3h0.2c0.4,0.1,0.8,0.2,1.2,0.2h0c0.5,0.1,0.9,0.1,1.4,0.1h0.2h0.8h0.4
	c0.4,0,0.8-0.1,1.2-0.1c5.1-0.6,8.9-2.4,10.6-9.4c1.5-5.8-0.7-15.9-1.2-21.1c-0.1-1.3,0.8-2.5,2.1-2.7c2.7-0.5,5.3-1.5,7.6-3
	c3.6-2.3,6.5-5.4,8.5-9.1c2-3.8,2.8-8.1,2.1-12.4c-1-5.7-3.5-10-7.6-12.8c-0.4-0.3-0.8-0.5-1.2-0.7l-0.4-0.2
	c-0.3-0.1-0.5-0.3-0.8-0.4s-0.3-0.1-0.5-0.2s-0.5-0.2-0.8-0.3l-0.6-0.2l-0.8-0.2c-0.2-0.1-0.4-0.1-0.6-0.2S38,72.1,37.7,72L37,72
	l-0.8-0.1l-0.7-0.1c-0.3,0-0.6,0-0.9-0.1s-0.5,0-0.8,0s-0.7,0-1.1,0c-2.5,0.2-5,0.6-7.4,1.1c-0.2,0-0.3-0.3-0.1-0.3
	c2.6-0.8,5.2-1.5,7.8-2c0.2,0,0.5-0.2,0.6-0.4c1.6-2.8,3.9-4.5,7.4-5.8c1.8-0.6,6.4-1.7,15.4-1.8c0.5,0,1,0,1.5,0h1.7h0.8h1.1h0.8
	h1.1h0.9h1.2h0.9l1.3,0.1h0.8l1.5,0.1h0.6l2.1,0.1c0,10.6,0.1,25,0.2,28.4c0,0.7,0,1.4,0.1,2.1c0,0.2,0,0.4,0,0.6
	c0,0.4,0.1,0.9,0.1,1.3l0.1,0.7c0,0.4,0.1,0.7,0.1,1.1s0,0.5,0.1,0.7s0.1,0.6,0.1,1s0.1,0.4,0.1,0.7s0.1,0.6,0.1,0.8l0.1,0.6
	c0.1,0.3,0.1,0.5,0.2,0.8s0.1,0.4,0.1,0.5s0.1,0.5,0.2,0.7s0.1,0.3,0.2,0.5s0.2,0.4,0.2,0.6s0.1,0.3,0.2,0.4s0.2,0.4,0.3,0.6
	s0.1,0.3,0.2,0.4c0.1,0.1,0.1,0.2,0.2,0.3l0.2,0.3c0.1,0.2,0.3,0.3,0.4,0.5l0.1,0.1c0.2,0.2,0.4,0.3,0.6,0.4L77,107
	c0.1,0.1,0.3,0.2,0.4,0.2l0.3,0.1c0.1,0,0.3,0.1,0.4,0.1h0.3c0.1,0,0.3,0,0.4,0c0.3,0,0.6,0,0.9-0.1c1.8-0.4,3.4-1.4,4.7-2.7
	c1.1-1,2-2.3,2.6-3.7c0.1-0.2,0.2-0.5,0.3-0.7c0-0.1,0-0.1,0-0.2c0-0.1,0-0.2,0-0.3c0,0,0-0.1-0.1-0.1c0-0.1-0.1-0.1-0.2-0.2h-0.2
	c-0.1,0-0.3,0-0.4,0c-0.4,0.1-0.7,0.1-1,0.2h-0.2c-0.2,0-0.4,0-0.6,0c-0.1,0-0.3,0-0.4,0h-0.2c-0.2,0-0.3-0.1-0.5-0.2
	c-0.9-0.7-1.5-1.7-1.6-2.8c-0.2-1.7-0.4-3.5-0.4-5.2v-28l0,0c0.8,0,1.5,0,2.3,0s1.6,0,2.4-0.1c0.1,0,0.2,0,0.3,0.1
	c0.1,0,0.1,0,0.2,0c0.1,0,0.2,0.1,0.3,0.2c0.1,0,0.1,0.1,0.2,0.1c0.1,0.1,0.1,0.2,0.2,0.3c0,0,0.1,0.1,0.1,0.1
	c0.1,0.2,0.1,0.4,0.1,0.5c-0.8,8.2-1,16.5-0.6,24.8c0.3,4.4,1,7.4,2.1,9.1c0.2,0.2,0.3,0.5,0.6,0.7c0,0,0.1,0.1,0.1,0.1
	c0.2,0.2,0.4,0.3,0.6,0.5l0.1,0.1c0.2,0.1,0.4,0.2,0.6,0.3h0.1c0.2,0.1,0.5,0.1,0.8,0.1h0.2c0.3,0,0.6,0,0.8-0.1
	c2-0.4,2.6-1.7,2.7-5.1c0-0.8,0-2.2-0.1-4.2c-0.1-0.4-0.1-1.7-0.2-2.3c0.5,0.7,1,1.3,1.6,1.9l0.2,0.3c0.5,0.6,0.9,1.1,1.4,1.6
	c0.1,0.1,0.2,0.2,0.3,0.3c0.5,0.5,0.9,0.9,1.3,1.3l0.2,0.2c0.4,0.4,0.9,0.8,1.3,1.1l0,0c0.4,0.3,0.9,0.6,1.3,0.8l0.2,0.1
	c0.4,0.2,0.8,0.4,1.2,0.6l0.2,0.1c0.4,0.1,0.8,0.3,1.2,0.3h0.2c0.4,0.1,0.8,0.1,1.2,0.1l0,0c0.5,0,1-0.1,1.4-0.2
	c0.3-0.1,0.6-0.2,0.9-0.3c2.4-1.2,4.4-3.2,5.3-5.7c0.2-0.3,0.8-1.4,1.2-2.3c0.2,0.3,0.5,0.7,0.7,1l0,0c0.3,0.4,0.6,0.8,1,1.1l0,0
	c0.3,0.3,0.7,0.6,1,0.9L119,92c0.3,0.3,0.7,0.5,1,0.7l0.2,0.1c0.3,0.2,0.7,0.4,1,0.5l0.3,0.1c0.3,0.1,0.7,0.2,1,0.3
	c0.2,0.1,0.4,0.1,0.6,0.1c0.3,0.1,0.7,0.1,1,0.2h0.3c0.3,0,0.6,0,0.9,0.1s0.4,0,0.6,0s0.6,0,1-0.1c0.2,0,0.3,0,0.5-0.1l0.5-0.1
	l0.9-0.2l0.5-0.1c0.5-0.2,0.9-0.3,1.4-0.5c0.9-0.5,1.8-1,2.7-1.6c1-0.7,1.9-1.5,2.7-2.4c0.7-0.9,1.2-1.8,1.7-2.8
	c0.8-1.5,1.4-3.2,1.7-4.9c0.1-0.7,0.2-1.3,0.3-1.9s0.1-1.3,0.1-1.9s0-1.2-0.1-1.8c0-0.6-0.1-1.1-0.2-1.6l-0.1-0.2
	c-0.1-0.4-0.6-0.7-1-0.5c0,0,0,0,0,0c-2,0.5-4.1,1-6.2,1.3c-0.2,0-0.3-0.2-0.1-0.3c3.5-1.2,6.9-3,9.8-5.2c0.2-0.2,0.5-0.3,0.7-0.5
	l0.1-0.1c0.4-0.3,0.8-0.6,1.1-0.9l0.2-0.2c0.3-0.3,0.6-0.6,0.9-0.8c0.1-0.1,0.2-0.3,0.4-0.4s0.5-0.5,0.7-0.7l0.4-0.5
	c0.2-0.2,0.4-0.4,0.6-0.7l0.3-0.5c0.2-0.2,0.3-0.5,0.5-0.7s0.3-0.6,0.4-0.8c0.1-0.3,0.2-0.5,0.2-0.8v-6.4c0-0.7-0.6-0.7-0.9-0.1
	c-1.9,3.2-4.1,6.1-6.6,8.8c0,0-0.1,0.1-0.1,0.1c-1.2,1.3-2.5,2.4-4.1,3.3c-0.5-1-1.3-2-2.1-2.8c-0.6-0.6-1.4-1-2.1-1.4
	c-0.3-0.1-0.5-0.2-0.8-0.3c-0.3-0.1-0.5-0.2-0.8-0.2h-0.3c-0.2,0-0.4,0-0.6,0h-0.3c-0.2,0-0.4,0-0.6,0.1H129l-0.6,0.2h-0.1
	c-0.2,0.1-0.5,0.2-0.7,0.3l-0.2,0.1l-0.5,0.3c-0.1,0-0.1,0.1-0.2,0.2c-0.1,0.1-0.3,0.2-0.4,0.3c-0.1,0-0.1,0.1-0.2,0.2
	c-0.2,0.2-0.3,0.3-0.4,0.5l0,0c-0.3,0.5-0.6,1-0.8,1.6c-0.1,0.3-0.1,0.5-0.2,0.8c0,0.5,0,1,0,1.5c0,0.5,0.1,1.1,0.3,1.6
	c0.1,0.3,0.2,0.7,0.4,1c0.1,0.1,0.1,0.2,0.2,0.3s0.2,0.4,0.3,0.6c0.1,0.1,0.1,0.2,0.2,0.3c0.1,0.2,0.2,0.3,0.4,0.5
	c0.1,0.1,0.2,0.2,0.3,0.3c0.1,0.1,0.3,0.3,0.4,0.4c0.1,0.1,0.3,0.2,0.4,0.3l0.4,0.2l0.4,0.2c0.2,0.1,0.4,0.1,0.6,0.2l0.4,0.1
	c0.2,0,0.5,0.1,0.7,0.1c0.1,0,0.2,0,0.4,0c0.4,0,0.8,0,1.1-0.1c0.1,0.8,0.2,1.8,0.3,3c0.1,0.8,0.1,1.8,0.1,2.7
	c0,1.4-0.2,2.8-0.5,4.2c-0.1,0.3-0.2,0.6-0.3,0.8c0,0.1-0.1,0.2-0.1,0.3c-0.1,0.2-0.1,0.4-0.2,0.5s-0.1,0.2-0.2,0.3
	c-0.1,0.2-0.2,0.3-0.3,0.4c-0.1,0.1-0.1,0.2-0.2,0.3c-0.1,0.1-0.2,0.2-0.3,0.4c-0.1,0.1-0.2,0.2-0.2,0.2c-0.1,0.1-0.2,0.2-0.4,0.3
	l-0.2,0.2c-0.1,0.1-0.3,0.2-0.4,0.2l-0.3,0.1c-0.2,0-0.4,0.1-0.5,0.1c-0.1,0-0.2,0-0.3,0c-0.3,0-0.6,0-0.9-0.1
	c-2.4-0.5-4-4.9-4.4-9.9c0-0.5-0.1-1-0.1-1.5c0-1,0-2,0.1-3c0-0.5,0.1-1.1,0.2-1.6c0.1-1,0.3-1.9,0.6-2.9c0.1-0.3,0.1-0.6,0.2-0.9
	c0-0.1,0-0.2,0-0.3c0-0.2,0-0.3,0.1-0.5c0-0.1,0-0.2,0-0.2c0-0.1,0-0.3,0-0.4c0-0.1,0-0.1,0-0.2c0-0.1,0-0.2,0-0.3
	c0-0.1,0-0.1-0.1-0.2c0-0.1,0-0.1-0.1-0.2c0,0-0.1-0.1-0.1-0.1c0,0-0.1-0.1-0.1-0.1c0,0-0.1,0-0.1-0.1l-0.2-0.1h-0.2H122h-0.2h-0.2
	l-0.2,0.1l-0.2,0.1l-0.3,0.1l-0.2,0.1l-0.3,0.1l-0.2,0.1l-0.3,0.2l-0.2,0.1l-0.3,0.2l-0.2,0.2l-0.3,0.2l-0.2,0.2l-0.2,0.2l-0.3,0.2
	c-0.5,0.3-0.9,0.7-1.3,1.1c-0.1,0.1-0.2,0.3-0.3,0.4c-0.2,0.3-0.4,0.6-0.6,0.9c-0.1,0.2-0.2,0.3-0.3,0.5c-0.2,0.4-0.4,0.8-0.6,1.3
	c0,0.1-0.1,0.2-0.1,0.3c-0.2,0.5-0.4,1.1-0.5,1.6c0,0.2-0.1,0.4-0.1,0.7s-0.1,0.7-0.2,1s-0.1,0.5-0.1,0.8s-0.1,0.6-0.1,0.8
	s0,0.5,0,0.8c0,0,0,0,0-0.1c-0.3,2.3-0.9,4.6-1.6,6.8c-0.8,2-1.5,3.2-2.2,3.6c-0.3,0.1-0.7,0.2-1,0.2l0,0c-3.6,0.4-9.3-2.8-10.9-4.6
	c-0.1-0.1-0.1-0.2,0-0.3c0.1-0.1,0.2-0.1,0.3-0.1c2.2,1,4.7,0.8,6.7-0.6c1.3-1.3,2.4-2.7,3.4-4.2c1.9-2.9,2.6-5.5,2.1-7.9
	c-0.4-1.5-1.5-2.7-2.9-3.3c-0.3-0.1-0.6-0.3-0.9-0.4l-0.3-0.1c-0.2-0.1-0.4-0.2-0.7-0.2L105,67l-0.7-0.1c-0.2,0-0.3,0-0.5,0
	s-0.5,0-0.8,0c-1.4,0.1-2.1,0.5-2,1.3c0.3,2.7-0.5,5.4-2,7.6c-0.6,1-1.3,2-2.1,2.9c-0.1,0.1-0.2,0.2-0.4,0.3h-0.1
	c-0.1,0-0.2,0.1-0.3,0.1h-0.1c-0.1,0-0.3,0-0.4-0.1l0,0c-0.1-0.1-0.2-0.1-0.3-0.2l-0.1-0.1c-0.1-0.1-0.1-0.2-0.2-0.3L95,78.3
	c-0.1-0.2-0.1-0.3-0.1-0.5c0-3.3,0.2-9.3,0.3-12.5c0-1-0.8-1.9-1.8-1.9c-0.1,0-0.1,0-0.2,0c-1.7,0.1-4,0.3-4.9,0.2
	c-0.2,0-0.3-0.3,0-0.3c4-0.4,7.8-1.6,11.3-3.5c0.3-0.2,0.6-0.4,0.8-0.5c3.8-2.6,6.7-6.3,6.8-10.7c0.1-2.7-0.7-5.3-2.2-7.6
	c-0.2-0.3-0.4-0.5-0.6-0.8l-0.2-0.2c-0.2-0.2-0.3-0.3-0.4-0.5l-0.3-0.2c-0.1-0.1-0.3-0.3-0.4-0.4l-0.3-0.2c-0.2-0.1-0.3-0.2-0.5-0.3
	s-0.3-0.1-0.4-0.2s-0.3-0.2-0.5-0.2s-0.3-0.1-0.4-0.1s-0.3-0.1-0.5-0.2l-0.4-0.1c-0.2,0-0.3-0.1-0.5-0.1s-0.3,0-0.5,0L98.3,37.5
	L98.3,37.5z M82.9,3.3l-2.7,1.5c-0.7,0.4-1.2,1.1-1.3,1.9c-0.1,0.7-0.6,1.2-1.3,1.1c-3.8-0.1-7.6,0-11.4,0.5c-0.7,0.1-1.3-0.4-1.4-1
	c-0.2-0.8-0.7-1.4-1.4-1.8l-2.9-1.3c-1-0.5-2.2-0.2-2.9,0.6l-2,2.4C55,7.9,54.8,8.7,55,9.5c0.1,0.7-0.3,1.3-0.9,1.5
	c-3.6,1.2-7.2,2.6-10.6,4.4c-0.6,0.3-1.3,0.1-1.7-0.4c-0.4-0.7-1.1-1.1-1.9-1.2l-3.1-0.2c-1.1-0.1-2.1,0.6-2.5,1.6L33.2,18
	c-0.3,0.7-0.2,1.6,0.2,2.2c0.4,0.6,0.3,1.3-0.3,1.8c-3,2.3-5.8,4.9-8.4,7.7c-0.5,0.5-1.2,0.6-1.8,0.1c-0.6-0.5-1.4-0.6-2.2-0.4
	l-3,0.9c-1,0.3-1.8,1.2-1.8,2.3v3.1c0,0.8,0.4,1.5,1,2c0.5,0.4,0.7,1.1,0.3,1.7c-2,3.2-3.8,6.6-5.3,10.1c-0.3,0.6-1,0.9-1.6,0.7
	c-0.8-0.2-1.6-0.1-2.2,0.4l-2.6,1.9c-0.9,0.6-1.2,1.8-0.9,2.8l1,3c0.3,0.7,0.9,1.3,1.6,1.6c0.6,0.2,1,0.9,0.9,1.5
	c-0.8,3.7-1.3,7.5-1.4,11.3c0,0.7-5.5,6.6-5.1,7.4c0.5-0.7,5.6-5.6,6.2-6c0.2-0.4,0.4-0.8,0.4-1.3c0.2-3.7,0.7-7.4,1.5-11.1
	c0.3-1.4-0.5-2.8-1.9-3.3c-0.3-0.1-0.5-0.3-0.7-0.6l-1-3c-0.1-0.4,0-0.8,0.3-1.1L9,51.9c0.3-0.2,0.6-0.2,0.9-0.1
	c1.4,0.4,2.9-0.2,3.4-1.6c1.4-3.4,3.2-6.8,5.2-9.9c0.8-1.2,0.5-2.8-0.7-3.7c-0.3-0.2-0.4-0.5-0.4-0.8v-3.1c0-0.4,0.3-0.8,0.7-0.9
	l3-0.9c0.3-0.1,0.7,0,0.9,0.2c1.1,0.9,2.8,0.7,3.8-0.3c2.5-2.7,5.3-5.3,8.2-7.6c1.1-0.9,1.4-2.5,0.6-3.7c-0.2-0.3-0.2-0.6-0.1-0.9
	l1.1-2.9c0.1-0.4,0.6-0.7,1-0.6l3.1,0.2c0.3,0,0.6,0.2,0.8,0.5c0.8,1.2,2.3,1.7,3.6,1c3.3-1.7,6.8-3.1,10.3-4.3
	c1.4-0.4,2.2-1.9,1.9-3.3c-0.1-0.3,0-0.6,0.2-0.9l2.1-2.4c0.3-0.3,0.7-0.4,1.1-0.2l2.9,1.3c0.3,0.1,0.5,0.4,0.6,0.7
	c0.3,1.4,1.6,2.4,3.1,2.2c3.7-0.5,7.4-0.6,11.2-0.5c1.4,0.1,2.7-1,2.9-2.4c0-0.3,0.2-0.6,0.5-0.8l2.7-1.5c0.4-0.2,0.8-0.1,1.1,0.2
	L87,7c0.2,0.2,0.3,0.6,0.3,0.9c-0.2,1.4,0.7,2.8,2.1,3.1c3.6,0.8,7.2,2,10.7,3.4c1.3,0.6,2.9,0,3.5-1.3c0.1-0.3,0.4-0.5,0.7-0.5
	l3.1-0.5c0.4,0,0.8,0.2,1,0.5l1.4,2.8c0.1,0.3,0.1,0.6,0,0.9c-0.7,1.3-0.2,2.9,1,3.6c3.1,2,6.1,4.3,8.9,6.8c1.1,1,2.7,1,3.8,0
	c0.2-0.2,0.6-0.3,0.9-0.3l3.1,0.6c0.4,0.1,0.7,0.4,0.8,0.8l0.3,3.1c0,0.3-0.1,0.6-0.3,0.9c-1.1,1-1.2,2.6-0.3,3.7
	c2.3,3,4.3,6.1,6,9.4c0.7,1.3,2.2,1.8,3.5,1.3c0.3-0.1,0.6-0.1,0.9,0.1L141,48c0.4,0.2,0.5,0.7,0.4,1.1l-0.8,3
	c-0.1,0.3-2.1,4.6-2,4.9c0.4-0.5,3.1-4.4,3.6-5l0.7-2.6c0.3-1.1-0.2-2.2-1.1-2.7L139,45c-0.7-0.4-1.5-0.5-2.3-0.2
	c-0.6,0.3-1.3,0-1.6-0.6c-1.8-3.4-3.8-6.6-6.1-9.6c-0.4-0.5-0.3-1.3,0.1-1.7c0.6-0.5,0.9-1.3,0.8-2.1l-0.3-3.2c-0.1-1.1-0.9-2-2-2.2
	l-3.1-0.6c-0.8-0.2-1.6,0.1-2.2,0.6c-0.5,0.4-1.2,0.4-1.7,0c-2.8-2.6-5.9-4.9-9.1-7c-0.6-0.4-0.8-1.1-0.4-1.7c0.4-0.7,0.4-1.5,0-2.3
	l-1.4-2.8c-0.5-1-1.5-1.5-2.6-1.4l-3.1,0.5c-0.8,0.1-1.5,0.6-1.8,1.3c-0.3,0.6-1,0.9-1.6,0.6c-3.5-1.5-7.2-2.6-10.9-3.4
	c-0.7-0.1-1.1-0.8-1-1.4c0.1-0.8-0.2-1.6-0.7-2.1l-2.2-2.2C85.4,3.3,84.7,3,84.1,3C83.7,3,83.3,3.1,82.9,3.3"/>
<g>
	<defs>
		<path id="SVGID_1_" d="M132.2,116.1v3.2c0,0.4-0.3,0.8-0.7,0.9l-3,0.8c-0.3,0.1-0.7,0-0.9-0.2c-1.1-0.9-2.8-0.7-3.8,0.3
			c-2.5,2.7-5.3,5.3-8.2,7.6c-1.1,0.9-1.4,2.5-0.6,3.7c0.2,0.3,0.2,0.6,0.1,0.9l-1.1,2.9c-0.1,0.4-0.6,0.7-1,0.6l-3.1-0.2
			c-0.3,0-0.6-0.2-0.8-0.5c-0.8-1.2-2.3-1.7-3.6-1c-3.3,1.7-6.8,3.1-10.4,4.3c-1.4,0.4-2.2,1.9-1.9,3.3c0.1,0.3,0,0.6-0.2,0.9
			l-2.1,2.4c-0.3,0.3-0.7,0.4-1.1,0.3l-2.9-1.3c-0.3-0.1-0.5-0.4-0.6-0.7c-0.3-1.4-1.6-2.4-3.1-2.2c-3.7,0.5-7.4,0.6-11.2,0.5
			c-1.4-0.1-2.7,1-2.9,2.4c0,0.3-0.2,0.6-0.5,0.8l-2.8,1.6c-0.4,0.2-0.8,0.1-1.1-0.1l-2.3-2.2c-0.2-0.2-0.3-0.5-0.3-0.9
			c0.2-1.4-0.7-2.8-2.1-3.1c-1.6-0.4-6.2-0.7-6.9-0.4c2.2,0.7,4.4,1.4,6.6,1.9c0.7,0.1,1.1,0.8,1,1.4c-0.1,0.8,0.2,1.6,0.7,2.1
			l2.3,2.2l0.2,0.2h3l2.4-1.4c0.7-0.4,1.2-1.1,1.3-1.9c0.1-0.7,0.7-1.1,1.3-1.1c3.8,0.2,7.6,0,11.4-0.5c0.7-0.1,1.3,0.4,1.4,1
			c0.2,0.8,0.7,1.4,1.4,1.8l2.9,1.3c1,0.5,2.2,0.2,2.9-0.6l2.1-2.4c0.5-0.6,0.7-1.4,0.5-2.2c-0.2-0.7,0.2-1.3,0.9-1.5
			c3.6-1.2,7.1-2.6,10.5-4.4c0.6-0.3,1.3-0.1,1.7,0.5c0.4,0.7,1.1,1.1,1.9,1.1l3.1,0.3c1.1,0.1,2.1-0.6,2.5-1.6l1.1-2.9
			c0.3-0.7,0.2-1.6-0.2-2.2c-0.4-0.6-0.2-1.3,0.3-1.7c3-2.3,5.8-4.9,8.4-7.7c0.5-0.5,1.2-0.5,1.8-0.1c0.6,0.5,1.4,0.6,2.2,0.4l3-0.8
			c1-0.3,1.8-1.2,1.8-2.3c-0.4-1.2-0.9-2.3-1.5-3.3c0,0.1,0,0.1,0,0.2 M134.3,97.4h-0.6c-0.4,0-0.9,0-1.3,0l-0.9,0.1
			c-0.5,0-1,0.1-1.5,0.2l-1,0.1c-0.6,0.1-1.2,0.2-1.9,0.3l-0.9,0.2c-1,0.2-2,0.4-3,0.6c-9.3,2-18.5,4.7-27.4,8
			c-10.4,3.7-19.9,7.3-28.3,10.6s-16.9,7-25.3,10.6c-1.1,0.4-2.1,1-3.1,1.6c-0.7,0.5-1,1.3-0.6,2.1c0.2,0.4,0.4,0.8,0.6,1.1
			c0.8,1.3,1.9,2.5,3.1,3.4c0.3,0.2,0.6,0.4,0.9,0.6l0.2,0.1c0.2,0.1,0.4,0.2,0.6,0.3c0.1,0,0.1,0.1,0.2,0.1
			c0.2,0.1,0.5,0.1,0.7,0.1c0.3,0,0.5-0.1,0.8-0.1c10.1-4.4,18.6-8,25.5-10.8s14.1-5.7,21.6-8.4s13.7-4.8,18.7-6.2
			c0.7-0.2,1.4-0.4,2.1-0.5l0.7-0.2l1.4-0.3l0.7-0.2l1.4-0.3l0.7-0.1l1.6-0.3l0.3-0.1l1.9-0.3h0.5l1.3-0.2h0.6l1.2-0.1
			c0.2,0,0.4,0,0.6,0h1.2h0.5c0.6,0,1.2,0,1.8,0.1h0.4c0.6,0,1.1,0.1,1.6,0.2h0.1c0.5,0.1,1,0.2,1.5,0.3l0.3,0.1
			c0.5,0.1,0.9,0.3,1.4,0.5c1.2,0.6,2.4,1.3,3.4,2.3l1.9,1.6c0.1,0,0.1,0.1,0.2,0.1c0.1,0,0.1,0,0.2,0l0,0c0.1,0,0.2-0.1,0.3-0.2
			l0.1-0.1l0.2-0.2l0.1-0.1c0.1-0.1,0.1-0.1,0.2-0.2l0.2-0.2l0.2-0.3l0.2-0.2l0.2-0.3l0.2-0.2l0.2-0.3l0.2-0.3
			c0.1-0.1,0.1-0.2,0.2-0.3l0.2-0.3l0.2-0.3c0.1-0.1,0.1-0.2,0.2-0.3c0.1-0.1,0.1-0.2,0.2-0.4s0.1-0.2,0.1-0.3l0.2-0.3l0.2-0.4
			c0.1-0.1,0.1-0.3,0.2-0.4s0.1-0.2,0.1-0.3s0.1-0.3,0.1-0.4l0.1-0.3c0-0.1,0.1-0.3,0.1-0.4s0-0.1,0-0.2c0-0.2,0.1-0.4,0.1-0.6
			c0.3-4-1.7-6.9-5.9-8.6c-0.4-0.2-0.8-0.3-1.1-0.4c-0.1,0-0.3-0.1-0.4-0.1l-0.9-0.2l-0.6-0.1c-0.3,0-0.6-0.1-1-0.1h-0.7L134.3,97.4
			z M60.3,80.9H60c-0.4,0-0.7,0.1-1.1,0.2c-1,0.2-1.5,1.6-1.7,4.1c-0.2,3.8-0.1,7.7,0.2,11.5c0,0.8,0,1.5,0.1,2.2c0,0.2,0,0.5,0,0.7
			c0,0.5,0.1,0.9,0.1,1.4c0,0.3,0,0.5,0.1,0.8s0.1,0.8,0.1,1.2s0.1,0.5,0.1,0.7s0.1,0.7,0.1,1s0.1,0.5,0.1,0.7s0.1,0.6,0.2,0.9
			s0.1,0.4,0.1,0.6s0.1,0.6,0.2,0.8s0.1,0.4,0.1,0.6s0.1,0.5,0.2,0.7s0.1,0.3,0.2,0.5l0.2,0.6c0.1,0.1,0.1,0.3,0.2,0.4l0.3,0.6
			c0.1,0.1,0.1,0.2,0.2,0.3c0.1,0.2,0.2,0.3,0.3,0.5l0.2,0.3c0.1,0.2,0.3,0.3,0.4,0.5c0,0,0.1,0.1,0.1,0.1c0.2,0.2,0.4,0.3,0.6,0.5
			l0.2,0.1c0.2,0.1,0.3,0.2,0.5,0.2l0.3,0.1l0.4,0.1h0.3h0.4c0.3,0,0.7,0,1-0.1c1.9-0.4,3.7-1.4,5-2.9c1.2-1.1,2.2-2.5,2.8-4
			c0.1-0.2,0.2-0.5,0.3-0.8c0-0.1,0-0.1,0-0.2c0-0.1,0-0.2,0-0.4c0,0,0-0.1-0.1-0.1c0-0.1-0.1-0.1-0.2-0.2c-0.1,0-0.1,0-0.2,0
			c-0.1,0-0.3,0-0.4,0c-0.3,0.1-0.7,0.1-1,0.2h-0.3c-0.2,0-0.4,0-0.6,0c-0.2,0-0.3,0-0.5,0h-0.2c-0.2,0-0.3-0.1-0.5-0.2
			c-1-0.7-1.6-1.8-1.7-3c-0.3-1.8-0.4-3.7-0.4-5.5v-3.8v-3.6c0-1.8-0.2-3.5-0.4-5.3c-0.4-1.2-1.3-2.1-2.5-2.4
			c-0.4-0.1-0.7-0.3-1.1-0.4l-0.3-0.1c-0.4-0.1-0.7-0.2-1.1-0.2l0,0c-0.2,0-0.5,0-0.7,0L60.3,80.9 M62.9,66.2h-0.5
			c-0.5,0.1-1.1,0.2-1.8,0.3c-3.1,0.7-5,3.3-3.8,6.9c0.5,1.6,1.5,2.9,2.9,3.8l0.2,0.1c0.2,0.1,0.3,0.2,0.5,0.3l0.3,0.1l0.5,0.1
			c0.1,0,0.2,0,0.3,0c0.2,0,0.4,0,0.6,0c1.1,0,2.3-0.9,3.6-2.4c1-1.2,1.7-2.7,2.2-4.2c0.4-2.2,0-3.7-1.3-4.5c-0.3-0.2-0.6-0.3-1-0.4
			l-0.1-0.1c-0.4-0.1-0.8-0.1-1.2-0.2h-0.4C63.5,66.1,63.2,66.1,62.9,66.2 M35.9,79.4L35.9,79.4c0.7,0.3,1.3,0.7,1.9,1.1
			c2.6,1.8,4.2,4.6,4.8,8.4c0.8,4-0.3,8.2-2.9,11.3c-1.2,1.4-2.6,2.6-4.3,3.5c-0.2,0.1-0.4,0.2-0.5,0.2h-0.3c-0.1,0-0.3,0-0.4,0H34
			c-0.1,0-0.3,0-0.4-0.1h-0.1c-0.2-0.1-0.4-0.1-0.5-0.2h0c-0.2-0.1-0.3-0.2-0.5-0.3l0-0.1c-0.1-0.1-0.2-0.2-0.3-0.4
			c0,0-0.1-0.1-0.1-0.2s-0.1-0.3-0.2-0.4s0-0.1,0-0.2c-0.1-0.2-0.1-0.4-0.1-0.6c-0.1-5.3-0.4-14.8-0.6-20.2c0-0.1,0-0.2,0-0.3
			c0-0.4-0.4-0.7-0.8-0.7c-2.4,0.2-4.7,0.6-7.1,1.1c-0.2,0-0.5-0.1,0-0.3C30.5,77.4,35.9,79.4,35.9,79.4z M130.2,70.5
			c-0.1,0-0.2,0-0.3,0c-0.2,0-0.4-0.1-0.6-0.1l-0.3-0.1c-0.2-0.1-0.3-0.2-0.5-0.3l-0.2-0.2c-0.2-0.2-0.4-0.4-0.6-0.7
			c-0.1-0.1-0.1-0.2-0.2-0.3c0,0,0-0.1,0-0.1c0-0.1,0-0.1,0-0.2v-0.1c0-0.1,0-0.1,0-0.2v-0.1c0-0.1,0-0.1,0.1-0.2l0.1-0.1
			c0-0.1,0.1-0.1,0.1-0.1l0.1-0.1c0,0,0.1-0.1,0.1-0.1l0.1-0.1c0.1,0,0.1,0,0.2,0h0.1c0.1,0,0.2,0,0.3,0l0,0
			c0.2,0.1,0.4,0.2,0.6,0.3c0.6,0.4,0.9,1.1,1.5,2.8l0,0c-0.2,0-0.3,0-0.5,0L130.2,70.5 M94.8,54.5c0.5-0.3,0.8-0.8,0.8-1.3
			c0.1-1.5,0.3-3,0.5-4.5c0.5-4.4,1.4-4.8,1.9-5c0.1,0,0.2-0.1,0.3-0.1h0.1c0.2,0,0.3,0,0.5,0H99h0.4h0.1l0.3,0.1h0.2l0.3,0.1
			l0.1,0.1c0.1,0.1,0.2,0.2,0.3,0.3c0.6,1,0.9,2.1,0.8,3.3c0,4-1.8,6.7-5.3,8c-2.1,0.6-4.3,0.9-6.5,0.9c-0.1,0-0.2-0.1-0.2-0.2
			c0-0.1,0.1-0.2,0.2-0.2C89.7,56,93.2,55.2,94.8,54.5z M98.3,37.5c-2.1,0.1-4.7,1.6-6.7,4.9c-1.7,2.8-1.6,8.2-2.6,13.1
			c0,0.1-0.1,0.3-0.2,0.4c0,0-0.1,0.1-0.1,0.1c-0.1,0.1-0.1,0.1-0.2,0.2l-0.1,0.1c-0.1,0-0.2,0.1-0.2,0.1h-0.2c-0.1,0-0.2,0-0.3,0
			L81.6,56v-1c0-1.7-0.1-3.3-0.3-5c-0.4-1.1-1.2-2-2.4-2.3c-0.5-0.2-0.9-0.3-1.4-0.4c-0.1,0-0.3,0-0.4-0.1c-0.3-0.1-0.7-0.1-1-0.1
			h-0.5h-0.3c-0.3,0-0.7,0.1-1,0.1c-0.9,0.2-1.4,1.5-1.6,3.9c0,0-0.1,1.7-0.1,2.5c0,0.3,0.2,0.6,0.6,0.6c2.4,0.3,4.7,0.8,7,1.4
			c0.1,0,0.1,0.2,0.1,0.2c0,0.1-0.2,0.1-0.2,0.1l0,0c-4-0.3-9.8-0.5-11.5-0.5c-0.3,0-0.5,0-0.9,0l-4.1-0.1h-0.4l-3.3-0.1H59h-3.4
			h-0.8h-1.9h-0.9c-0.6,0-1.2,0-1.7,0.1h-0.9l-1.8,0.1h-0.6c-0.8,0.1-1.5,0.1-2.3,0.2c-0.2,0-0.3,0-0.5,0.1L42.5,56l-0.7,0.1
			l-1.3,0.3l-0.7,0.2c-0.4,0.1-0.9,0.2-1.3,0.3L37.9,57c-0.6,0.2-1.2,0.4-1.7,0.6l0,0c-5.4,2-9.2,6.1-11.6,12.3
			c-0.3,0.7-0.5,1.4-0.7,2.2c-0.3,0.8-0.9,1.4-1.6,1.6c-2.7,0.9-5.4,2-7.9,3.4c-4.3,2.4-7.2,5-8.8,8C4.4,87,4,89.1,4.4,91.1
			c0.5,1.6,1.4,3.1,2.6,4.3c0.1,0.1,0.2,0.2,0.3,0.3c1.3,1.1,2.7,1.9,4.3,2.4c0.3,0.1,0.7,0.1,1,0.2h0.3h0.5h0.1
			c0.2,0,0.3,0,0.5-0.1l0,0c0.1,0,0.2-0.1,0.2-0.2c0.1-0.9,0.2-1.7,0.3-2.6c0-1.5,0.2-2.9,0.5-4.3c0.7-3.1,2.4-5.9,4.9-7.9l2-1.6
			c-0.4,4.3-0.4,8.7-0.3,13c0,2,0.2,4.4,0.3,7.2s0.4,5.2,0.4,7s1.6,23.5-1.6,24.9c-0.2,0.1-0.5,0.2-0.7,0.2h-0.2c-0.2,0-0.4,0-0.6,0
			h-0.2c-0.3,0-0.7,0-1-0.1l-0.1,0c-0.3-0.1-0.7-0.2-1-0.3l0,0c-0.4-0.1-0.7-0.2-1.1-0.4l-0.2-0.1c-0.4-0.1-0.7-0.3-1-0.5l-0.2-0.1
			c-0.3-0.2-0.7-0.4-1-0.5l0,0c-0.3-0.2-0.6-0.4-0.9-0.6l-0.2-0.1l-0.8-0.5l-0.2-0.1l-0.6-0.4c-0.1-0.1-0.2-0.1-0.4-0.1h-0.1
			c-0.1,0-0.2,0.1-0.2,0.1c0,0-0.1,0.1-0.1,0.1c-0.1,0.1-0.2,0.2-0.2,0.3c0,0.1-0.1,0.1-0.1,0.2c-0.1,0.3-0.2,0.5-0.3,0.8
			c-0.5,1.9-0.5,3.9-0.1,5.8c0.5,1.6,1.3,3.1,2.5,4.2l0.4,0.5l0.1,0.1l0.5,0.5l0.1,0.1c0.2,0.2,0.4,0.3,0.6,0.5l0.1,0.1
			c0.2,0.1,0.5,0.3,0.7,0.4h0.1c0.3,0.1,0.6,0.3,0.9,0.4l0.2,0.1c0.3,0.1,0.7,0.2,1,0.3h0.2c0.4,0.1,0.8,0.2,1.2,0.2h0
			c0.5,0.1,0.9,0.1,1.4,0.1h0.2h0.8h0.4c0.4,0,0.8-0.1,1.2-0.1c5.1-0.6,8.9-2.4,10.6-9.4c1.5-5.8-0.7-15.9-1.2-21.1
			c-0.1-1.3,0.8-2.5,2.1-2.7c2.7-0.5,5.3-1.5,7.6-3c3.6-2.3,6.5-5.4,8.5-9.1c2-3.8,2.8-8.1,2.1-12.4c-1-5.7-3.5-10-7.6-12.8
			c-0.4-0.3-0.8-0.5-1.2-0.7l-0.4-0.2c-0.3-0.1-0.5-0.3-0.8-0.4s-0.3-0.1-0.5-0.2s-0.5-0.2-0.8-0.3l-0.6-0.2l-0.8-0.2
			c-0.2-0.1-0.4-0.1-0.6-0.2S38,72.1,37.7,72L37,72l-0.8-0.1l-0.7-0.1c-0.3,0-0.6,0-0.9-0.1s-0.5,0-0.8,0s-0.7,0-1.1,0
			c-2.5,0.2-5,0.6-7.4,1.1c-0.2,0-0.3-0.3-0.1-0.3c2.6-0.8,5.2-1.5,7.8-2c0.2,0,0.5-0.2,0.6-0.4c1.6-2.8,3.9-4.5,7.4-5.8
			c1.8-0.6,6.4-1.7,15.4-1.8c0.5,0,1,0,1.5,0h1.7h0.8h1.1h0.8h1.1h0.9h1.2h0.9l1.3,0.1h0.8l1.5,0.1h0.6l2.1,0.1
			c0,10.6,0.1,25,0.2,28.4c0,0.7,0,1.4,0.1,2.1c0,0.2,0,0.4,0,0.6c0,0.4,0.1,0.9,0.1,1.3l0.1,0.7c0,0.4,0.1,0.7,0.1,1.1
			s0,0.5,0.1,0.7s0.1,0.6,0.1,1s0.1,0.4,0.1,0.7s0.1,0.6,0.1,0.8l0.1,0.6c0.1,0.3,0.1,0.5,0.2,0.8s0.1,0.4,0.1,0.5s0.1,0.5,0.2,0.7
			s0.1,0.3,0.2,0.5s0.2,0.4,0.2,0.6s0.1,0.3,0.2,0.4s0.2,0.4,0.3,0.6s0.1,0.3,0.2,0.4c0.1,0.1,0.1,0.2,0.2,0.3l0.2,0.3
			c0.1,0.2,0.3,0.3,0.4,0.5l0.1,0.1c0.2,0.2,0.4,0.3,0.6,0.4L77,107c0.1,0.1,0.3,0.2,0.4,0.2l0.3,0.1c0.1,0,0.3,0.1,0.4,0.1h0.3
			c0.1,0,0.3,0,0.4,0c0.3,0,0.6,0,0.9-0.1c1.8-0.4,3.4-1.4,4.7-2.7c1.1-1,2-2.3,2.6-3.7c0.1-0.2,0.2-0.5,0.3-0.7c0-0.1,0-0.1,0-0.2
			c0-0.1,0-0.2,0-0.3c0,0,0-0.1-0.1-0.1c0-0.1-0.1-0.1-0.2-0.2h-0.2c-0.1,0-0.3,0-0.4,0c-0.4,0.1-0.7,0.1-1,0.2h-0.2
			c-0.2,0-0.4,0-0.6,0c-0.1,0-0.3,0-0.4,0h-0.2c-0.2,0-0.3-0.1-0.5-0.2c-0.9-0.7-1.5-1.7-1.6-2.8c-0.2-1.7-0.4-3.5-0.4-5.2v-28l0,0
			c0.8,0,1.5,0,2.3,0s1.6,0,2.4-0.1c0.1,0,0.2,0,0.3,0.1c0.1,0,0.1,0,0.2,0c0.1,0,0.2,0.1,0.3,0.2c0.1,0,0.1,0.1,0.2,0.1
			c0.1,0.1,0.1,0.2,0.2,0.3c0,0,0.1,0.1,0.1,0.1c0.1,0.2,0.1,0.4,0.1,0.5c-0.8,8.2-1,16.5-0.6,24.8c0.3,4.4,1,7.4,2.1,9.1
			c0.2,0.2,0.3,0.5,0.6,0.7c0,0,0.1,0.1,0.1,0.1c0.2,0.2,0.4,0.3,0.6,0.5l0.1,0.1c0.2,0.1,0.4,0.2,0.6,0.3h0.1
			c0.2,0.1,0.5,0.1,0.8,0.1h0.2c0.3,0,0.6,0,0.8-0.1c2-0.4,2.6-1.7,2.7-5.1c0-0.8,0-2.2-0.1-4.2c-0.1-0.4-0.1-1.7-0.2-2.3
			c0.5,0.7,1,1.3,1.6,1.9l0.2,0.3c0.5,0.6,0.9,1.1,1.4,1.6c0.1,0.1,0.2,0.2,0.3,0.3c0.5,0.5,0.9,0.9,1.3,1.3l0.2,0.2
			c0.4,0.4,0.9,0.8,1.3,1.1l0,0c0.4,0.3,0.9,0.6,1.3,0.8l0.2,0.1c0.4,0.2,0.8,0.4,1.2,0.6l0.2,0.1c0.4,0.1,0.8,0.3,1.2,0.3h0.2
			c0.4,0.1,0.8,0.1,1.2,0.1l0,0c0.5,0,1-0.1,1.4-0.2c0.3-0.1,0.6-0.2,0.9-0.3c2.4-1.2,4.4-3.2,5.3-5.7c0.2-0.3,0.8-1.4,1.2-2.3
			c0.2,0.3,0.5,0.7,0.7,1l0,0c0.3,0.4,0.6,0.8,1,1.1l0,0c0.3,0.3,0.7,0.6,1,0.9L119,92c0.3,0.3,0.7,0.5,1,0.7l0.2,0.1
			c0.3,0.2,0.7,0.4,1,0.5l0.3,0.1c0.3,0.1,0.7,0.2,1,0.3c0.2,0.1,0.4,0.1,0.6,0.1c0.3,0.1,0.7,0.1,1,0.2h0.3c0.3,0,0.6,0,0.9,0.1
			s0.4,0,0.6,0s0.6,0,1-0.1c0.2,0,0.3,0,0.5-0.1l0.5-0.1l0.9-0.2l0.5-0.1c0.5-0.2,0.9-0.3,1.4-0.5c0.9-0.5,1.8-1,2.7-1.6
			c1-0.7,1.9-1.5,2.7-2.4c0.7-0.9,1.2-1.8,1.7-2.8c0.8-1.5,1.4-3.2,1.7-4.9c0.1-0.7,0.2-1.3,0.3-1.9s0.1-1.3,0.1-1.9s0-1.2-0.1-1.8
			c0-0.6-0.1-1.1-0.2-1.6l-0.1-0.2c-0.1-0.4-0.6-0.7-1-0.5c0,0,0,0,0,0c-2,0.5-4.1,1-6.2,1.3c-0.2,0-0.3-0.2-0.1-0.3
			c3.5-1.2,6.9-3,9.8-5.2c0.2-0.2,0.5-0.3,0.7-0.5l0.1-0.1c0.4-0.3,0.8-0.6,1.1-0.9l0.2-0.2c0.3-0.3,0.6-0.6,0.9-0.8
			c0.1-0.1,0.2-0.3,0.4-0.4s0.5-0.5,0.7-0.7l0.4-0.5c0.2-0.2,0.4-0.4,0.6-0.7l0.3-0.5c0.2-0.2,0.3-0.5,0.5-0.7s0.3-0.6,0.4-0.8
			c0.1-0.3,0.2-0.5,0.2-0.8v-6.4c0-0.7-0.6-0.7-0.9-0.1c-1.9,3.2-4.1,6.1-6.6,8.8c0,0-0.1,0.1-0.1,0.1c-1.2,1.3-2.5,2.4-4.1,3.3
			c-0.5-1-1.3-2-2.1-2.8c-0.6-0.6-1.4-1-2.1-1.4c-0.3-0.1-0.5-0.2-0.8-0.3c-0.3-0.1-0.5-0.2-0.8-0.2h-0.3c-0.2,0-0.4,0-0.6,0h-0.3
			c-0.2,0-0.4,0-0.6,0.1H129l-0.6,0.2h-0.1c-0.2,0.1-0.5,0.2-0.7,0.3l-0.2,0.1l-0.5,0.3c-0.1,0-0.1,0.1-0.2,0.2
			c-0.1,0.1-0.3,0.2-0.4,0.3c-0.1,0-0.1,0.1-0.2,0.2c-0.2,0.2-0.3,0.3-0.4,0.5l0,0c-0.3,0.5-0.6,1-0.8,1.6c-0.1,0.3-0.1,0.5-0.2,0.8
			c0,0.5,0,1,0,1.5c0,0.5,0.1,1.1,0.3,1.6c0.1,0.3,0.2,0.7,0.4,1c0.1,0.1,0.1,0.2,0.2,0.3s0.2,0.4,0.3,0.6c0.1,0.1,0.1,0.2,0.2,0.3
			c0.1,0.2,0.2,0.3,0.4,0.5c0.1,0.1,0.2,0.2,0.3,0.3c0.1,0.1,0.3,0.3,0.4,0.4c0.1,0.1,0.3,0.2,0.4,0.3l0.4,0.2l0.4,0.2
			c0.2,0.1,0.4,0.1,0.6,0.2l0.4,0.1c0.2,0,0.5,0.1,0.7,0.1c0.1,0,0.2,0,0.4,0c0.4,0,0.8,0,1.1-0.1c0.1,0.8,0.2,1.8,0.3,3
			c0.1,0.8,0.1,1.8,0.1,2.7c0,1.4-0.2,2.8-0.5,4.2c-0.1,0.3-0.2,0.6-0.3,0.8c0,0.1-0.1,0.2-0.1,0.3c-0.1,0.2-0.1,0.4-0.2,0.5
			s-0.1,0.2-0.2,0.3c-0.1,0.2-0.2,0.3-0.3,0.4c-0.1,0.1-0.1,0.2-0.2,0.3c-0.1,0.1-0.2,0.2-0.3,0.4c-0.1,0.1-0.2,0.2-0.2,0.2
			c-0.1,0.1-0.2,0.2-0.4,0.3l-0.2,0.2c-0.1,0.1-0.3,0.2-0.4,0.2l-0.3,0.1c-0.2,0-0.4,0.1-0.5,0.1c-0.1,0-0.2,0-0.3,0
			c-0.3,0-0.6,0-0.9-0.1c-2.4-0.5-4-4.9-4.4-9.9c0-0.5-0.1-1-0.1-1.5c0-1,0-2,0.1-3c0-0.5,0.1-1.1,0.2-1.6c0.1-1,0.3-1.9,0.6-2.9
			c0.1-0.3,0.1-0.6,0.2-0.9c0-0.1,0-0.2,0-0.3c0-0.2,0-0.3,0.1-0.5c0-0.1,0-0.2,0-0.2c0-0.1,0-0.3,0-0.4c0-0.1,0-0.1,0-0.2
			c0-0.1,0-0.2,0-0.3c0-0.1,0-0.1-0.1-0.2c0-0.1,0-0.1-0.1-0.2c0,0-0.1-0.1-0.1-0.1c0,0-0.1-0.1-0.1-0.1c0,0-0.1,0-0.1-0.1l-0.2-0.1
			h-0.2H122h-0.2h-0.2l-0.2,0.1l-0.2,0.1l-0.3,0.1l-0.2,0.1l-0.3,0.1l-0.2,0.1l-0.3,0.2l-0.2,0.1l-0.3,0.2l-0.2,0.2l-0.3,0.2
			l-0.2,0.2l-0.2,0.2l-0.3,0.2c-0.5,0.3-0.9,0.7-1.3,1.1c-0.1,0.1-0.2,0.3-0.3,0.4c-0.2,0.3-0.4,0.6-0.6,0.9
			c-0.1,0.2-0.2,0.3-0.3,0.5c-0.2,0.4-0.4,0.8-0.6,1.3c0,0.1-0.1,0.2-0.1,0.3c-0.2,0.5-0.4,1.1-0.5,1.6c0,0.2-0.1,0.4-0.1,0.7
			s-0.1,0.7-0.2,1s-0.1,0.5-0.1,0.8s-0.1,0.6-0.1,0.8s0,0.5,0,0.8c0,0,0,0,0-0.1c-0.3,2.3-0.9,4.6-1.6,6.8c-0.8,2-1.5,3.2-2.2,3.6
			c-0.3,0.1-0.7,0.2-1,0.2l0,0c-3.6,0.4-9.3-2.8-10.9-4.6c-0.1-0.1-0.1-0.2,0-0.3c0.1-0.1,0.2-0.1,0.3-0.1c2.2,1,4.7,0.8,6.7-0.6
			c1.3-1.3,2.4-2.7,3.4-4.2c1.9-2.9,2.6-5.5,2.1-7.9c-0.4-1.5-1.5-2.7-2.9-3.3c-0.3-0.1-0.6-0.3-0.9-0.4l-0.3-0.1
			c-0.2-0.1-0.4-0.2-0.7-0.2L105,67l-0.7-0.1c-0.2,0-0.3,0-0.5,0s-0.5,0-0.8,0c-1.4,0.1-2.1,0.5-2,1.3c0.3,2.7-0.5,5.4-2,7.6
			c-0.6,1-1.3,2-2.1,2.9c-0.1,0.1-0.2,0.2-0.4,0.3h-0.1c-0.1,0-0.2,0.1-0.3,0.1h-0.1c-0.1,0-0.3,0-0.4-0.1l0,0
			c-0.1-0.1-0.2-0.1-0.3-0.2l-0.1-0.1c-0.1-0.1-0.1-0.2-0.2-0.3L95,78.3c-0.1-0.2-0.1-0.3-0.1-0.5c0-3.3,0.2-9.3,0.3-12.5
			c0-1-0.8-1.9-1.8-1.9c-0.1,0-0.1,0-0.2,0c-1.7,0.1-4,0.3-4.9,0.2c-0.2,0-0.3-0.3,0-0.3c4-0.4,7.8-1.6,11.3-3.5
			c0.3-0.2,0.6-0.4,0.8-0.5c3.8-2.6,6.7-6.3,6.8-10.7c0.1-2.7-0.7-5.3-2.2-7.6c-0.2-0.3-0.4-0.5-0.6-0.8l-0.2-0.2
			c-0.2-0.2-0.3-0.3-0.4-0.5l-0.3-0.2c-0.1-0.1-0.3-0.3-0.4-0.4l-0.3-0.2c-0.2-0.1-0.3-0.2-0.5-0.3s-0.3-0.1-0.4-0.2
			s-0.3-0.2-0.5-0.2s-0.3-0.1-0.4-0.1s-0.3-0.1-0.5-0.2l-0.4-0.1c-0.2,0-0.3-0.1-0.5-0.1s-0.3,0-0.5,0L98.3,37.5L98.3,37.5z
			 M82.9,3.3l-2.7,1.5c-0.7,0.4-1.2,1.1-1.3,1.9c-0.1,0.7-0.6,1.2-1.3,1.1c-3.8-0.1-7.6,0-11.4,0.5c-0.7,0.1-1.3-0.4-1.4-1
			c-0.2-0.8-0.7-1.4-1.4-1.8l-2.9-1.3c-1-0.5-2.2-0.2-2.9,0.6l-2,2.4C55,7.9,54.8,8.7,55,9.5c0.1,0.7-0.3,1.3-0.9,1.5
			c-3.6,1.2-7.2,2.6-10.6,4.4c-0.6,0.3-1.3,0.1-1.7-0.4c-0.4-0.7-1.1-1.1-1.9-1.2l-3.1-0.2c-1.1-0.1-2.1,0.6-2.5,1.6L33.2,18
			c-0.3,0.7-0.2,1.6,0.2,2.2c0.4,0.6,0.3,1.3-0.3,1.8c-3,2.3-5.8,4.9-8.4,7.7c-0.5,0.5-1.2,0.6-1.8,0.1c-0.6-0.5-1.4-0.6-2.2-0.4
			l-3,0.9c-1,0.3-1.8,1.2-1.8,2.3v3.1c0,0.8,0.4,1.5,1,2c0.5,0.4,0.7,1.1,0.3,1.7c-2,3.2-3.8,6.6-5.3,10.1c-0.3,0.6-1,0.9-1.6,0.7
			c-0.8-0.2-1.6-0.1-2.2,0.4l-2.6,1.9c-0.9,0.6-1.2,1.8-0.9,2.8l1,3c0.3,0.7,0.9,1.3,1.6,1.6c0.6,0.2,1,0.9,0.9,1.5
			c-0.8,3.7-1.3,7.5-1.4,11.3c0,0.7-5.5,6.6-5.1,7.4c0.5-0.7,5.6-5.6,6.2-6c0.2-0.4,0.4-0.8,0.4-1.3c0.2-3.7,0.7-7.4,1.5-11.1
			c0.3-1.4-0.5-2.8-1.9-3.3c-0.3-0.1-0.5-0.3-0.7-0.6l-1-3c-0.1-0.4,0-0.8,0.3-1.1L9,51.9c0.3-0.2,0.6-0.2,0.9-0.1
			c1.4,0.4,2.9-0.2,3.4-1.6c1.4-3.4,3.2-6.8,5.2-9.9c0.8-1.2,0.5-2.8-0.7-3.7c-0.3-0.2-0.4-0.5-0.4-0.8v-3.1c0-0.4,0.3-0.8,0.7-0.9
			l3-0.9c0.3-0.1,0.7,0,0.9,0.2c1.1,0.9,2.8,0.7,3.8-0.3c2.5-2.7,5.3-5.3,8.2-7.6c1.1-0.9,1.4-2.5,0.6-3.7c-0.2-0.3-0.2-0.6-0.1-0.9
			l1.1-2.9c0.1-0.4,0.6-0.7,1-0.6l3.1,0.2c0.3,0,0.6,0.2,0.8,0.5c0.8,1.2,2.3,1.7,3.6,1c3.3-1.7,6.8-3.1,10.3-4.3
			c1.4-0.4,2.2-1.9,1.9-3.3c-0.1-0.3,0-0.6,0.2-0.9l2.1-2.4c0.3-0.3,0.7-0.4,1.1-0.2l2.9,1.3c0.3,0.1,0.5,0.4,0.6,0.7
			c0.3,1.4,1.6,2.4,3.1,2.2c3.7-0.5,7.4-0.6,11.2-0.5c1.4,0.1,2.7-1,2.9-2.4c0-0.3,0.2-0.6,0.5-0.8l2.7-1.5c0.4-0.2,0.8-0.1,1.1,0.2
			L87,7c0.2,0.2,0.3,0.6,0.3,0.9c-0.2,1.4,0.7,2.8,2.1,3.1c3.6,0.8,7.2,2,10.7,3.4c1.3,0.6,2.9,0,3.5-1.3c0.1-0.3,0.4-0.5,0.7-0.5
			l3.1-0.5c0.4,0,0.8,0.2,1,0.5l1.4,2.8c0.1,0.3,0.1,0.6,0,0.9c-0.7,1.3-0.2,2.9,1,3.6c3.1,2,6.1,4.3,8.9,6.8c1.1,1,2.7,1,3.8,0
			c0.2-0.2,0.6-0.3,0.9-0.3l3.1,0.6c0.4,0.1,0.7,0.4,0.8,0.8l0.3,3.1c0,0.3-0.1,0.6-0.3,0.9c-1.1,1-1.2,2.6-0.3,3.7
			c2.3,3,4.3,6.1,6,9.4c0.7,1.3,2.2,1.8,3.5,1.3c0.3-0.1,0.6-0.1,0.9,0.1L141,48c0.4,0.2,0.5,0.7,0.4,1.1l-0.8,3
			c-0.1,0.3-2.1,4.6-2,4.9c0.4-0.5,3.1-4.4,3.6-5l0.7-2.6c0.3-1.1-0.2-2.2-1.1-2.7L139,45c-0.7-0.4-1.5-0.5-2.3-0.2
			c-0.6,0.3-1.3,0-1.6-0.6c-1.8-3.4-3.8-6.6-6.1-9.6c-0.4-0.5-0.3-1.3,0.1-1.7c0.6-0.5,0.9-1.3,0.8-2.1l-0.3-3.2
			c-0.1-1.1-0.9-2-2-2.2l-3.1-0.6c-0.8-0.2-1.6,0.1-2.2,0.6c-0.5,0.4-1.2,0.4-1.7,0c-2.8-2.6-5.9-4.9-9.1-7
			c-0.6-0.4-0.8-1.1-0.4-1.7c0.4-0.7,0.4-1.5,0-2.3l-1.4-2.8c-0.5-1-1.5-1.5-2.6-1.4l-3.1,0.5c-0.8,0.1-1.5,0.6-1.8,1.3
			c-0.3,0.6-1,0.9-1.6,0.6c-3.5-1.5-7.2-2.6-10.9-3.4c-0.7-0.1-1.1-0.8-1-1.4c0.1-0.8-0.2-1.6-0.7-2.1l-2.2-2.2
			C85.4,3.3,84.7,3,84.1,3C83.7,3,83.3,3.1,82.9,3.3"/>
	</defs>
	<clipPath id="SVGID_2_">
		<use xlink:href="#SVGID_1_"  style="overflow:visible;"/>
	</clipPath>
	<g class="st1">
		
			<radialGradient id="SVGID_3_" cx="-365.4438" cy="185.1169" r="0.36" gradientTransform="matrix(204.22 0 0 204.22 74705.3984 -37729.5781)" gradientUnits="userSpaceOnUse">
			<stop  offset="0" style="stop-color:#FFFFFF"/>
			<stop  offset="1" style="stop-color:#D0D0D0"/>
		</radialGradient>
		<rect x="1.2" y="3" class="st2" width="147.3" height="145.4"/>
	</g>
</g>
<path class="st0" d="M112,118.2c-0.5,0.4-1.2,0.8-2.1,1.5l-1.5,1c-0.6,0.3-1.2,0.7-1.8,1.1c-1.3,0.8-2.8,1.6-4.5,2.5
	s-3.5,1.6-5.5,2.4s-4.1,1.4-6.3,2.1l-1.7,0.4l-1.8,0.4l-3.5,0.6l-1.8,0.2c-0.6,0.1-1.2,0.2-1.8,0.2l-1.8,0.1c-0.3,0-0.6,0-0.9,0H76
	h-1.8c-0.6,0-1.2,0-1.8-0.1H72c-1.8,0.8-3.8,1.6-5.8,2.4c0.7,0.1,1.3,0.2,2,0.3l1.9,0.2c0.6,0.1,1.3,0.1,1.9,0.1s1.3,0.1,1.9,0.1h3
	l1-0.1l1.9-0.1c0.6,0,1.3-0.1,1.9-0.2l1.9-0.3c1.3-0.2,2.5-0.5,3.7-0.8l1.8-0.5l1.8-0.5c2.2-0.7,4.4-1.5,6.5-2.5
	c3.5-1.6,6.7-3.6,9.8-6c0.6-0.5,1.2-1,1.7-1.4l1.4-1.2c0.8-0.8,1.4-1.4,1.8-1.8l0.6-0.7L112,118.2 M45.2,41.6L43,43.4
	c-0.2,0.2-0.3,0.6-0.1,0.8c0,0,0,0,0,0l4.5,5.6c0.2,0.2,0.6,0.3,0.8,0.1l2.2-1.7c0.3-0.2,0.4-0.5,0.2-0.8s-0.5-0.4-0.8-0.2
	c0,0-0.1,0.1-0.1,0.1l-1.3,1c-0.1,0.1-0.3,0.2-0.4,0.1c-0.1,0-0.3-0.1-0.4-0.2l-0.8-1c-0.1-0.1-0.1-0.2-0.1-0.4
	c0-0.2,0.1-0.3,0.2-0.4l1.3-1c0.2-0.2,0.3-0.6,0.1-0.8s-0.6-0.3-0.8-0.1l0,0l-1.3,1c-0.1,0.1-0.3,0.2-0.5,0.1
	c-0.1,0-0.2-0.1-0.3-0.2l-0.8-1c-0.1-0.1-0.2-0.3-0.1-0.4c0-0.2,0.1-0.3,0.2-0.4l1.3-1c0.2-0.2,0.3-0.6,0.1-0.8
	c-0.1-0.1-0.3-0.2-0.4-0.2C45.4,41.5,45.2,41.5,45.2,41.6 M60.6,41.4c-0.3,0-0.5,0.3-0.5,0.7s0.3,0.5,0.7,0.5s0.5-0.3,0.5-0.7
	c0-0.2-0.2-0.4-0.5-0.5H60.6 M49,39c-1,0.6-1.3,1.9-0.7,2.8c0,0,0,0,0,0c0.2,0.3,0.4,0.6,0.8,0.8c0.6,0.3,1.2,0.5,1.9,0.5
	c0.4,0,0.8,0.1,1.2,0.1c0.4,0.1,0.7,0.3,0.9,0.6c0.3,0.4,0.1,1-0.3,1.2c0,0,0,0,0,0c-0.4,0.3-1,0.1-1.3-0.3
	c-0.2-0.3-0.5-0.4-0.8-0.2c-0.3,0.2-0.3,0.5-0.2,0.8c0,0,0,0,0,0c0.7,0.9,2,1.1,2.9,0.4c0.8-0.6,1-1.7,0.6-2.5
	c-0.3-0.5-0.8-0.9-1.3-1.1c-0.5-0.2-1.1-0.2-1.7-0.3c-0.4,0-0.9-0.1-1.3-0.2c-0.2-0.1-0.4-0.2-0.5-0.4c-0.3-0.4-0.1-1,0.3-1.3
	c0.4-0.3,1-0.1,1.3,0.3c0.2,0.3,0.5,0.4,0.8,0.2s0.4-0.5,0.2-0.8c-0.4-0.6-1-1-1.8-1C49.7,38.7,49.3,38.8,49,39 M56.5,35.2L54.9,36
	l-1.7,0.7c-0.3,0.1-0.4,0.5-0.3,0.8c0,0,0,0,0,0c0.1,0.3,0.5,0.4,0.8,0.3l0.6-0.2c0.1-0.1,0.3-0.1,0.5,0c0.2,0.1,0.4,0.2,0.4,0.4
	l2.3,5.4c0.1,0.3,0.5,0.4,0.7,0.3c0,0,0,0,0,0c0.3-0.1,0.4-0.5,0.3-0.8c0,0,0,0,0,0l-2.3-5.4c-0.1-0.2-0.1-0.3-0.1-0.5
	c0.1-0.2,0.2-0.3,0.4-0.4l0.5-0.2c0.3-0.1,0.4-0.5,0.3-0.8c-0.1-0.2-0.3-0.3-0.5-0.3C56.7,35.2,56.6,35.2,56.5,35.2 M80.8,33.3
	c-0.1,0.3,0.1,0.6,0.4,0.7l1.3,0.3c0.2,0,0.5,0.2,0.6,0.3c0.1,0.2,0.1,0.4,0,0.6l-2.6,5.3c-0.1,0.3,0,0.6,0.3,0.8
	c0.3,0.1,0.6,0,0.8-0.3c0,0,0,0,0,0l3.2-6.6c0.1-0.3,0-0.6-0.3-0.8h-0.1l0,0l-2.9-0.6h-0.1C81.1,32.9,80.9,33.1,80.8,33.3
	 M66.2,32.8c-1.1,0.2-1.9,1.2-1.7,2.4c0,0.3,0.3,0.6,0.6,0.5s0.6-0.3,0.5-0.6c0,0,0-0.1,0-0.1c-0.1-0.5,0.3-1,0.8-1.1s1,0.3,1.1,0.8
	l0.1,0.9c0.1,0.5-0.3,1-0.8,1.1c-1.1,0.2-1.9,1.2-1.7,2.3c0,0,0,0,0,0l0.3,1.7c0.1,0.3,0.3,0.5,0.7,0.5l3-0.5c0.3,0,0.6-0.3,0.5-0.6
	c0-0.3-0.3-0.6-0.6-0.5c0,0-0.1,0-0.1,0l-1.7,0.3c-0.2,0-0.4,0-0.5-0.1c-0.1-0.1-0.2-0.3-0.3-0.5l-0.1-0.5c-0.1-0.5,0.2-1,0.7-1.1
	c0,0,0,0,0.1,0c1.1-0.2,1.9-1.2,1.7-2.4c0,0,0,0,0,0l-0.1-0.9c-0.2-1-1-1.7-2-1.8L66.2,32.8 M78,32.5l-1.2,1
	c-0.2,0.2-0.3,0.6-0.1,0.8c0,0,0,0,0,0c0.1,0.2,0.4,0.2,0.6,0.2c0.1,0,0.2,0,0.2,0s0.1,0.2,0,0.3L77,40c0,0.3,0.2,0.6,0.5,0.6
	s0.6-0.2,0.6-0.5l0.7-7.1c0-0.3-0.2-0.6-0.5-0.6c0,0,0,0,0,0h-0.1C78.1,32.4,78,32.4,78,32.5 M71.7,38.4l-0.1-4.1
	c0.1-0.5,0.5-0.9,1-0.8c0.4,0,0.8,0.4,0.8,0.8l0.1,4.2c0,0.5-0.4,0.9-0.9,0.9c0,0,0,0,0,0l0,0C72.2,39.3,71.8,38.9,71.7,38.4
	 M72.6,32.2c-1.1,0-2,1-2,2.1l0.1,4.1c0,1.1,1,2.1,2.1,2c1.1,0,2.1-1,2-2.1l-0.1-4.2C74.7,33.1,73.8,32.2,72.6,32.2L72.6,32.2z
	 M80.6,18.5c-3.1-0.3-6.3-0.4-9.4-0.2c-2.4,0.2-4.7,0.5-7.1,0.9c-1.4-1.8-2.4-3.9-3.2-6c0.2,2.3,0.1,4.6-0.4,6.8l-0.8,0.2
	c-0.7,0.2-1.5,0.5-2.2,0.7s-1.5,0.5-2.2,0.8L54.1,22l-1.1,0.4c-1.4,0.6-2.8,1.2-4.2,1.9l-2,1.1c-0.5,0.3-1,0.6-1.6,0.9
	c-1.9-1.3-3.7-2.8-5.1-4.6c1,2.1,1.7,4.3,2,6.6c-1.5,1.1-3,2.2-4.5,3.4c-2.7,2.3-5.2,4.9-7.4,7.7c-2.8-0.3-6.6-2.6-6.6-2.6
	s3.3,3.1,4.3,5.7c-0.4,0.6-0.8,1.2-1.2,1.8c-2.5,3.8-4.4,8-5.9,12.3c-2.6,0.8-7.5-0.1-7.5-0.1s4.6,2.1,6.3,4.3
	c-0.7,2.9-1.2,5.8-1.5,8.8c0.4-0.2,0.9-0.3,1.3-0.5c0.6-3.7,1.5-7.3,2.7-10.8c1.6-4.5,3.8-8.8,6.5-12.8c3-4.4,6.7-8.4,10.8-11.8
	c4.4-3.6,9.4-6.5,14.7-8.6l1-0.4l1-0.4c0.7-0.2,1.4-0.5,2.1-0.7l2.1-0.6l2.2-0.5c2.9-0.6,5.8-1.1,8.7-1.3c5.9-0.4,11.8,0.2,17.5,1.7
	l1,0.3l1,0.3c0.7,0.2,1.4,0.4,2.1,0.7l2,0.7l2,0.8c2.6,1.1,5.1,2.4,7.5,3.9c2.3,1.5,4.5,3.1,6.6,4.9c2,1.7,4,3.5,5.8,5.5
	c1.6,1.9,3.2,3.8,4.6,5.9c1.3,1.9,2.5,3.9,3.5,6c0.3,0.5,0.5,1,0.7,1.5s0.4,1,0.7,1.5c0.3,0.7,0.6,1.4,0.9,2.1
	c0.4-0.3,7.2-5.7,7.2-5.7s-4.8,1.4-7.5,0.7l-0.4-0.9c-1-2.2-2.1-4.3-3.4-6.4c-0.7-1-1.3-2.1-2.1-3.2s-1.5-2-2.3-3
	c0.7-2.7,3.8-6.2,3.8-6.2s-3.7,2.7-6.4,3.2c-1-1-2-2.1-3.1-3c-2.1-1.9-4.4-3.7-6.8-5.2c-0.9-0.6-1.9-1.2-2.8-1.7
	c0.1-2.3,0.6-4.6,1.4-6.8c-1.3,1.9-2.9,3.6-4.7,5.1c-4.9-2.4-10.2-4.1-15.6-5c-0.6-2.2-1-4.5-0.9-6.8C82.7,14.4,81.8,16.5,80.6,18.5
	"/>
</svg>
