<svg id="Layer_1" data-name="Layer 1" xmlns="http://www.w3.org/2000/svg" xmlns:xlink="http://www.w3.org/1999/xlink" viewBox="0 0 150 150"><defs><style>.cls-1{fill:#fff;}.cls-2{clip-path:url(#clip-path);}.cls-3{fill:url(#radial-gradient);}.cls-4{fill:url(#New_Gradient_Swatch_1);}</style><clipPath id="clip-path"><path class="cls-1" d="M132.17,116.13l0,3.15a1,1,0,0,1-.7.91l-3,.84a1,1,0,0,1-.91-.18,2.78,2.78,0,0,0-3.75.32,66.32,66.32,0,0,1-8.24,7.56,2.77,2.77,0,0,0-.64,3.7,1,1,0,0,1,.1.91l-1.11,2.94a.92.92,0,0,1-1,.62l-3.14-.24a1,1,0,0,1-.78-.47,2.77,2.77,0,0,0-3.62-1A67.27,67.27,0,0,1,95,139.47a2.77,2.77,0,0,0-1.86,3.27,1,1,0,0,1-.22.88L90.86,146a1,1,0,0,1-1.11.25L86.88,145a1,1,0,0,1-.58-.73,2.76,2.76,0,0,0-3.07-2.16,66.28,66.28,0,0,1-11.17.49A2.74,2.74,0,0,0,69.19,145a1,1,0,0,1-.51.76l-2.75,1.55a1,1,0,0,1-1.13-.15l-2.25-2.21a1,1,0,0,1-.3-.86A2.76,2.76,0,0,0,60.11,141c-1.63-.37-6.23-.71-6.92-.41,2.17.72,4.37,1.35,6.59,1.86a1.28,1.28,0,0,1,1,1.43A2.55,2.55,0,0,0,61.5,146l2.25,2.2.24.2h3L69.41,147a2.55,2.55,0,0,0,1.26-1.86A1.28,1.28,0,0,1,72,144.05a67.15,67.15,0,0,0,11.42-.5,1.32,1.32,0,0,1,1.43,1,2.49,2.49,0,0,0,1.42,1.75l2.86,1.3A2.46,2.46,0,0,0,92,147l2.06-2.38a2.56,2.56,0,0,0,.54-2.2,1.28,1.28,0,0,1,.87-1.51A69.13,69.13,0,0,0,106,136.53a1.28,1.28,0,0,1,1.68.46,2.52,2.52,0,0,0,1.93,1.15l3.14.25a2.46,2.46,0,0,0,2.47-1.58l1.11-2.94a2.53,2.53,0,0,0-.23-2.24,1.29,1.29,0,0,1,.29-1.72,67.85,67.85,0,0,0,8.43-7.73,1.31,1.31,0,0,1,1.75-.14,2.54,2.54,0,0,0,2.21.43l3-.84a2.47,2.47,0,0,0,1.79-2.33,25.49,25.49,0,0,0-1.5-3.35,1.16,1.16,0,0,1,0,.18m2.2-18.73h-.64c-.43,0-.87,0-1.32,0l-.94.06c-.49,0-1,.1-1.53.16l-1,.12c-.6.08-1.23.18-1.86.29l-.92.15c-1,.17-2,.37-3,.59a205.92,205.92,0,0,0-27.39,8c-10.42,3.68-19.88,7.25-28.32,10.61S50.45,124.38,42,128a20.2,20.2,0,0,0-3.07,1.57,1.71,1.71,0,0,0-.64,2.1,8.38,8.38,0,0,0,.62,1.15A13.56,13.56,0,0,0,42,136.27a6.7,6.7,0,0,0,.87.59l.24.13a3.49,3.49,0,0,0,.61.26.73.73,0,0,0,.19.07,2.31,2.31,0,0,0,.72.1,1.93,1.93,0,0,0,.75-.15c10.07-4.35,18.56-8,25.55-10.82s14.1-5.65,21.6-8.37,13.7-4.81,18.74-6.17c.7-.18,1.4-.36,2.09-.52l.66-.16,1.43-.32.73-.15,1.36-.28.67-.13,1.62-.27.33-.06,1.9-.27.49,0,1.34-.15.62,0,1.17-.09c.2,0,.4,0,.59,0l1.24,0H128c.64,0,1.24,0,1.83.06l.41,0c.55,0,1.08.1,1.58.18l.15,0c.53.09,1,.2,1.51.33l.34.09a14.15,14.15,0,0,1,1.35.48,13.22,13.22,0,0,1,3.37,2.26l1.88,1.57a.3.3,0,0,0,.19.08.63.63,0,0,0,.21,0h0a1.44,1.44,0,0,0,.29-.16l.1-.08.23-.19.15-.13c.07-.07.15-.14.22-.22l.17-.18.22-.25.18-.21.23-.29.18-.24.23-.31.18-.26c.07-.12.15-.22.22-.34l.18-.28.21-.35a2.75,2.75,0,0,0,.17-.29c.07-.12.14-.24.2-.36s.09-.16.13-.25l.18-.35.16-.36c.06-.13.11-.25.16-.38s.08-.19.11-.28.09-.26.13-.38l.09-.27c0-.13.07-.27.1-.4s0-.14,0-.21a4,4,0,0,0,.08-.58q.41-6-5.92-8.6a8.62,8.62,0,0,0-1.15-.37c-.14,0-.3-.06-.44-.09l-.92-.17-.58-.06c-.32,0-.65-.06-1-.07l-.67,0ZM60.26,80.92H60a8,8,0,0,0-1.08.15c-1,.21-1.5,1.56-1.69,4.13a106.24,106.24,0,0,0,.15,11.51q0,1.16.09,2.22c0,.24,0,.46,0,.68,0,.48.06.95.09,1.39,0,.26,0,.5.07.75s.07.78.11,1.15.06.5.09.74.09.69.14,1,.07.46.1.69.1.61.16.9.08.42.13.63.12.55.18.81.09.38.14.56.14.49.21.72.11.34.16.5l.24.64c.06.14.12.29.17.43l.28.56a3.9,3.9,0,0,0,.19.35,5,5,0,0,0,.32.51l.18.26c.14.18.29.34.44.5a.63.63,0,0,1,.11.12,5.24,5.24,0,0,0,.61.47l.17.08a2.39,2.39,0,0,0,.48.24l.26.08.44.11.3,0h.42a5.55,5.55,0,0,0,1-.11,9.86,9.86,0,0,0,5-2.87,11.6,11.6,0,0,0,2.82-4,3.94,3.94,0,0,0,.28-.78,1.54,1.54,0,0,0,0-.19,1.11,1.11,0,0,0,0-.36.52.52,0,0,0-.06-.13.35.35,0,0,0-.16-.16.43.43,0,0,0-.16,0,1.29,1.29,0,0,0-.44,0,9.26,9.26,0,0,1-1,.19l-.29,0c-.2,0-.4,0-.56,0a3.28,3.28,0,0,1-.46,0l-.22,0a1.34,1.34,0,0,1-.5-.2,4.23,4.23,0,0,1-1.68-3,36.49,36.49,0,0,1-.4-5.51l0-3.82,0-3.61A36.33,36.33,0,0,0,66.38,84a3.71,3.71,0,0,0-2.53-2.45,10.36,10.36,0,0,0-1.12-.36l-.28-.06a8.8,8.8,0,0,0-1.1-.2h0c-.23,0-.45,0-.68,0h-.38m2.59-14.73-.52,0q-.82.11-1.77.3c-3.07.68-5,3.25-3.78,6.93a7.13,7.13,0,0,0,2.94,3.84l.24.14c.18.09.35.19.52.26l.28.1.46.12a1.53,1.53,0,0,0,.3,0,3.21,3.21,0,0,0,.62,0c1.08,0,2.25-.86,3.55-2.44a12.47,12.47,0,0,0,2.16-4.2c.45-2.18,0-3.65-1.35-4.51a3.76,3.76,0,0,0-1-.42l-.13-.05a6.33,6.33,0,0,0-1.19-.16H63.8c-.3,0-.62,0-.95,0M35.91,79.41s0,0,0,0a9.59,9.59,0,0,1,1.89,1.12c2.59,1.79,4.15,4.59,4.75,8.38a13.26,13.26,0,0,1-2.94,11.25,14.76,14.76,0,0,1-4.26,3.53,4.2,4.2,0,0,1-.55.22l-.29,0a2,2,0,0,1-.42,0H34a3.11,3.11,0,0,1-.44-.06l-.12,0a4.93,4.93,0,0,1-.53-.22l-.05,0a3.72,3.72,0,0,1-.45-.33l-.05-.07a2.11,2.11,0,0,1-.3-.37s-.06-.11-.1-.16-.12-.25-.17-.38,0-.12-.05-.17a3.11,3.11,0,0,1-.1-.61c-.1-5.35-.35-14.82-.56-20.18,0-.07,0-.2,0-.34a.73.73,0,0,0-.75-.69,55.31,55.31,0,0,0-7.07,1.1c-.18,0-.55-.08-.05-.34C30.46,77.37,35.91,79.41,35.91,79.41Zm94.26-8.87a3,3,0,0,1-.31,0,3.41,3.41,0,0,1-.55-.14l-.26-.1a3.78,3.78,0,0,1-.51-.3l-.22-.16a2.75,2.75,0,0,1-.58-.68,1.33,1.33,0,0,1-.15-.32s0-.07,0-.11a1.43,1.43,0,0,1,0-.22v-.12c0-.07,0-.13,0-.2l0-.12a1.22,1.22,0,0,1,.07-.17l.06-.1a.71.71,0,0,1,.1-.14l.09-.09a.67.67,0,0,1,.14-.09l.11-.06a.58.58,0,0,1,.18,0l.12,0a1,1,0,0,1,.34,0h0a2.52,2.52,0,0,1,.64.3c.56.37.95,1.07,1.49,2.85h0a2.7,2.7,0,0,1-.49,0h-.26M94.84,54.49a1.49,1.49,0,0,0,.77-1.3,36.75,36.75,0,0,1,.53-4.51c.52-4.36,1.44-4.82,1.88-5a2,2,0,0,1,.35-.08h.1a3.58,3.58,0,0,1,.48,0H99l.39,0,.14,0,.31.07.15,0,.27.13.11.06a1,1,0,0,1,.29.28,5,5,0,0,1,.8,3.29c0,4-1.75,6.71-5.32,8a23.41,23.41,0,0,1-6.47.89.17.17,0,0,1,0-.34S93.16,55.18,94.84,54.49Zm3.5-17c-2.07.06-4.69,1.6-6.67,4.87-1.72,2.83-1.56,8.2-2.56,13.14a1.15,1.15,0,0,1-.17.41.87.87,0,0,1-.09.11,1.9,1.9,0,0,1-.19.21l-.14.08a2.53,2.53,0,0,1-.23.12l-.18,0a1,1,0,0,1-.29,0l-6.21-.38V55a33.31,33.31,0,0,0-.33-5,3.49,3.49,0,0,0-2.37-2.3,9.84,9.84,0,0,0-1.42-.41c-.14,0-.28-.05-.42-.08a8.8,8.8,0,0,0-1-.1l-.52,0-.26,0a6,6,0,0,0-1,.14c-.92.2-1.42,1.47-1.59,3.88,0,0-.05,1.65-.07,2.55a.63.63,0,0,0,.55.64,63.39,63.39,0,0,1,7,1.38A.17.17,0,0,1,80,56c-4-.31-9.84-.5-11.5-.52-.27,0-.53,0-.92,0l-4.07-.12h-.4L59.8,55.3l-.84,0-3.44,0h-.77l-1.92,0-.93,0c-.58,0-1.15,0-1.71.06l-.88,0-1.8.11-.62,0c-.78.06-1.54.13-2.27.22-.15,0-.3,0-.45.06L42.48,56l-.69.12-1.35.27-.69.16c-.44.1-.87.22-1.29.34l-.58.16c-.59.19-1.17.39-1.73.61h0Q28.12,60.62,24.6,70c-.25.71-.5,1.42-.72,2.15a2.5,2.5,0,0,1-1.65,1.62,40.36,40.36,0,0,0-7.9,3.44c-4.26,2.43-7.21,5-8.77,8a8.21,8.21,0,0,0-1.21,5.92A10,10,0,0,0,7,95.46a3.61,3.61,0,0,0,.35.33,13.42,13.42,0,0,0,4.3,2.39,10.21,10.21,0,0,0,1,.19l.26,0,.54,0h.09a1.46,1.46,0,0,0,.48-.09l0,0a.45.45,0,0,0,.24-.23,25.46,25.46,0,0,0,.29-2.58,22.61,22.61,0,0,1,.53-4.35A14.17,14.17,0,0,1,20,83.24l2-1.55a109,109,0,0,0-.28,13c0,2,.18,4.36.34,7.23s.36,5.18.36,7,1.64,23.5-1.56,24.94a3.44,3.44,0,0,1-.71.22l-.23,0a3.33,3.33,0,0,1-.56,0h-.22a5.5,5.5,0,0,1-1-.09L18,134a10.05,10.05,0,0,1-1-.26h0a10.8,10.8,0,0,1-1.08-.4l-.2-.08c-.35-.15-.69-.3-1-.47l-.19-.09c-.34-.17-.67-.35-1-.53h0c-.33-.18-.64-.37-.94-.55l-.17-.1-.79-.49-.17-.12-.63-.41a.64.64,0,0,0-.36-.1l-.1,0a.51.51,0,0,0-.23.14.43.43,0,0,0-.11.12,2.51,2.51,0,0,0-.22.34c0,.06-.06.11-.09.18a8,8,0,0,0-.29.77,11.25,11.25,0,0,0-.05,5.83,9.65,9.65,0,0,0,2.5,4.23l.45.49.09.09.51.49.11.1c.19.16.4.33.62.49l.08.06c.23.15.46.3.72.45l.07,0c.27.14.56.27.87.4l.18.06a10.06,10.06,0,0,0,1,.32l.19,0a11,11,0,0,0,1.24.21H18a12.25,12.25,0,0,0,1.4.07h.24l.75,0h.37c.39,0,.8-.06,1.22-.12,5.11-.62,8.85-2.41,10.6-9.44,1.45-5.84-.66-15.87-1.17-21.11a2.49,2.49,0,0,1,2.1-2.68,20.72,20.72,0,0,0,7.63-3,24.45,24.45,0,0,0,8.51-9.11,20.12,20.12,0,0,0,2.14-12.4c-1-5.74-3.53-10-7.6-12.78-.38-.25-.76-.49-1.16-.71l-.41-.2c-.27-.14-.54-.29-.82-.41s-.34-.14-.51-.21-.52-.22-.79-.31l-.58-.18-.79-.23c-.21-.06-.42-.1-.63-.15s-.54-.13-.82-.18L37,72l-.84-.12-.71-.06c-.29,0-.58,0-.87-.06s-.51,0-.76,0-.74,0-1.13,0a65.67,65.67,0,0,0-7.44,1.08c-.2,0-.26-.26-.06-.33a58,58,0,0,1,7.83-2,.81.81,0,0,0,.58-.42c1.59-2.85,3.89-4.5,7.44-5.79,1.85-.6,6.41-1.7,15.42-1.84.46,0,.95,0,1.45,0h1.71l.78,0,1.07,0,.82,0,1.13,0,.86,0,1.17,0,.88,0,1.29.06.79,0,1.52.07.57,0,2.07.1c0,10.63.06,25,.23,28.36,0,.73,0,1.42.09,2.09,0,.23,0,.43,0,.64,0,.45.06.89.09,1.31l.06.7c0,.37.07.74.11,1.09s0,.46.08.69.08.64.13,1,.06.44.1.66.09.57.14.84l.12.6c.06.26.12.51.17.76s.1.36.14.53.13.46.2.67.1.33.15.48.15.4.22.6.11.27.17.4.21.43.32.64.14.27.2.36a3.78,3.78,0,0,0,.22.33l.17.25a4.62,4.62,0,0,0,.41.46l.11.12a4.6,4.6,0,0,0,.56.45L77,107a4.51,4.51,0,0,0,.44.22l.25.07a3.06,3.06,0,0,0,.41.1l.29,0a2.54,2.54,0,0,0,.39,0,4.24,4.24,0,0,0,.92-.1,9.21,9.21,0,0,0,4.67-2.7A10.85,10.85,0,0,0,87,100.91a4.3,4.3,0,0,0,.27-.74,1.24,1.24,0,0,0,0-.18.93.93,0,0,0,0-.33.52.52,0,0,0-.06-.13.36.36,0,0,0-.15-.15l-.15,0a.94.94,0,0,0-.41,0c-.36.08-.68.14-1,.18l-.24,0c-.2,0-.4,0-.57,0a2.72,2.72,0,0,1-.42,0l-.21,0a1.3,1.3,0,0,1-.48-.19A4,4,0,0,1,82,96.54a36.75,36.75,0,0,1-.37-5.19l0-28h0c.76,0,1.52,0,2.28,0s1.63,0,2.43-.06a1,1,0,0,1,.34.06.85.85,0,0,1,.22,0,1.38,1.38,0,0,1,.25.17,1,1,0,0,1,.17.12,1.92,1.92,0,0,1,.18.28c0,.05.07.09.09.15a1.31,1.31,0,0,1,.06.53,165.54,165.54,0,0,0-.61,24.76c.32,4.37,1,7.42,2.12,9.05a4.79,4.79,0,0,0,.55.68,1.59,1.59,0,0,0,.13.13,3.33,3.33,0,0,0,.6.48l.11.06a3,3,0,0,0,.62.26l.12,0a3.08,3.08,0,0,0,.75.09h.18a4.26,4.26,0,0,0,.84-.1c2-.44,2.57-1.72,2.65-5.14,0-.84,0-2.24-.14-4.15-.09-.43-.12-1.71-.18-2.28.54.7,1,1.33,1.56,1.94l.21.26c.48.56.95,1.08,1.41,1.57.08.1.17.19.25.28.46.47.9.91,1.34,1.32l.2.18c.45.41.9.79,1.34,1.12,0,0,0,0,0,0,.44.32.86.6,1.28.85l.17.11a12.2,12.2,0,0,0,1.21.59l.21.08a7.42,7.42,0,0,0,1.17.35l.18,0a6.11,6.11,0,0,0,1.2.12h0a6.4,6.4,0,0,0,1.43-.16,5.75,5.75,0,0,0,.87-.26,10.59,10.59,0,0,0,5.35-5.72c.15-.3.83-1.42,1.24-2.33a12.16,12.16,0,0,0,.71,1h0a11.84,11.84,0,0,0,1,1.11l0,0a12.78,12.78,0,0,0,1,.91L119,92a10.19,10.19,0,0,0,1,.71l.2.11a10.09,10.09,0,0,0,1,.52l.29.12a9.66,9.66,0,0,0,1,.34c.19.06.38.1.56.14a9.3,9.3,0,0,0,1,.19l.26,0c.29,0,.58,0,.88.06s.42,0,.64,0,.64,0,1-.07a4.46,4.46,0,0,0,.51-.07l.5-.08.9-.23.47-.13a13,13,0,0,0,1.38-.53,18.05,18.05,0,0,0,2.67-1.64A15.82,15.82,0,0,0,136,89a16.58,16.58,0,0,0,1.72-2.75,18.56,18.56,0,0,0,1.72-4.91c.13-.66.22-1.31.29-1.95s.09-1.28.09-1.89,0-1.21-.08-1.78a15.8,15.8,0,0,0-.23-1.64l-.06-.17a.8.8,0,0,0-1-.53,54.45,54.45,0,0,1-6.19,1.29c-.24,0-.32-.2-.1-.26A34.27,34.27,0,0,0,142,69.17c.24-.17.47-.34.69-.52l.09-.08q.57-.45,1.11-.93l.22-.21c.31-.28.62-.56.9-.85.13-.12.23-.25.35-.37s.47-.49.69-.74l.38-.46c.18-.23.38-.45.55-.68l.34-.5c.16-.22.33-.45.47-.68s.31-.57.45-.85a2,2,0,0,0,.18-.83V55.08c0-.68-.62-.65-.94-.14a54.39,54.39,0,0,1-6.63,8.81.6.6,0,0,1-.08.08,17.77,17.77,0,0,1-4.06,3.33,9,9,0,0,0-2.14-2.75A9.8,9.8,0,0,0,132.45,63q-.39-.18-.78-.33a3.66,3.66,0,0,0-.79-.2l-.27,0a3.46,3.46,0,0,0-.56,0l-.27,0a5.21,5.21,0,0,0-.55.08l-.26,0-.65.2-.11,0a5.88,5.88,0,0,0-.72.33l-.19.12-.46.3a1.66,1.66,0,0,0-.21.16,4.09,4.09,0,0,0-.38.33,1.21,1.21,0,0,0-.16.16,4,4,0,0,0-.43.51h0a5.13,5.13,0,0,0-.76,1.61,7.6,7.6,0,0,0-.17.8,7.36,7.36,0,0,0,0,1.47,9.64,9.64,0,0,0,.27,1.58,7.85,7.85,0,0,0,.39,1c.05.11.11.21.16.31s.22.43.34.62a3.71,3.71,0,0,0,.23.32,4.83,4.83,0,0,0,.37.49,3.9,3.9,0,0,0,.28.29,5.34,5.34,0,0,0,.44.39c.13.11.27.2.41.3l.39.23.38.17a4.77,4.77,0,0,0,.57.2l.38.1a3.94,3.94,0,0,0,.69.08c.12,0,.24,0,.36,0a5.66,5.66,0,0,0,1.14-.08c.1.79.23,1.84.31,3,.06.85.09,1.78.08,2.73a19.34,19.34,0,0,1-.47,4.15,8,8,0,0,1-.26.83,1.89,1.89,0,0,1-.11.25c-.07.18-.15.36-.23.54s-.11.19-.16.28a4,4,0,0,1-.27.44c-.06.1-.13.18-.19.27a3.65,3.65,0,0,1-.31.36c-.08.09-.16.16-.24.24a3.44,3.44,0,0,1-.36.28l-.22.15a2.86,2.86,0,0,1-.43.21l-.33.12a2.43,2.43,0,0,1-.54.08,1.26,1.26,0,0,1-.27,0,3.67,3.67,0,0,1-.91-.1c-2.39-.52-4-4.89-4.37-9.89,0-.5-.06-1-.08-1.51,0-1,0-2,.07-3,0-.53.09-1.06.16-1.58a23,23,0,0,1,.55-2.88c.08-.34.14-.64.19-.92,0-.09,0-.16,0-.25a5,5,0,0,0,.06-.51,1.92,1.92,0,0,0,0-.24c0-.13,0-.26,0-.37a.71.71,0,0,0,0-.21,2.16,2.16,0,0,0,0-.27,1.09,1.09,0,0,0-.08-.15.72.72,0,0,0-.09-.2,1.14,1.14,0,0,0-.11-.11.81.81,0,0,0-.14-.12s-.09,0-.14-.07l-.16-.06-.17,0H122l-.22,0-.21,0-.24.07-.22.07-.27.1-.24.1-.28.14-.24.12-.31.17-.24.14-.32.19-.24.15-.32.21-.24.15-.24.17-.31.21a8,8,0,0,0-1.25,1.14c-.12.13-.22.27-.33.41a8.14,8.14,0,0,0-.64.9c-.11.18-.23.35-.33.54a13,13,0,0,0-.58,1.25c0,.1-.1.2-.13.3a14.61,14.61,0,0,0-.49,1.59c0,.21-.09.43-.14.65s-.13.66-.18,1-.08.51-.11.77-.06.57-.08.85,0,.53,0,.78a.35.35,0,0,0,0-.06A40.9,40.9,0,0,1,112,84.92c-.83,2-1.53,3.23-2.17,3.56a1.93,1.93,0,0,1-1,.18h0c-3.63.38-9.35-2.85-10.94-4.56a.22.22,0,0,1,.25-.36,6.75,6.75,0,0,0,6.67-.58A24,24,0,0,0,108.17,79c1.92-2.94,2.63-5.54,2.1-7.93a4.76,4.76,0,0,0-2.9-3.28,9.64,9.64,0,0,0-.93-.4l-.31-.1c-.22-.07-.44-.15-.67-.2l-.41-.08-.65-.1c-.15,0-.31,0-.47,0s-.49,0-.75,0c-1.45.13-2.13.54-2,1.33a11.37,11.37,0,0,1-2,7.58,22.89,22.89,0,0,1-2.1,2.89,1.24,1.24,0,0,1-.4.3l-.12,0a1.11,1.11,0,0,1-.34.08h-.12a1.17,1.17,0,0,1-.42-.09l0,0a1.55,1.55,0,0,1-.32-.2l-.09-.1a1.34,1.34,0,0,1-.19-.26L95,78.32a1.4,1.4,0,0,1-.09-.47c0-3.25.19-9.32.27-12.52a1.89,1.89,0,0,0-2-1.94c-1.73.12-4,.26-4.9.19-.23,0-.27-.29,0-.32a30.18,30.18,0,0,0,11.3-3.47c.31-.19.6-.37.85-.55,3.85-2.64,6.65-6.29,6.77-10.68A12.87,12.87,0,0,0,105,41a8.86,8.86,0,0,0-.59-.75l-.21-.22c-.15-.16-.29-.31-.45-.46l-.28-.23c-.14-.13-.29-.25-.44-.37l-.33-.22c-.15-.09-.3-.2-.46-.29s-.25-.11-.37-.18-.32-.16-.49-.22-.27-.09-.4-.14-.34-.12-.51-.16l-.45-.09c-.18,0-.35-.07-.54-.09s-.31,0-.47,0l-.6,0ZM82.9,3.31,80.16,4.85a2.55,2.55,0,0,0-1.27,1.86,1.26,1.26,0,0,1-1.32,1.13,68.32,68.32,0,0,0-11.43.51,1.33,1.33,0,0,1-1.43-1A2.5,2.5,0,0,0,63.3,5.58l-2.87-1.3a2.43,2.43,0,0,0-2.86.64l-2,2.38A2.53,2.53,0,0,0,55,9.5,1.28,1.28,0,0,1,54.1,11a68.13,68.13,0,0,0-10.57,4.36,1.29,1.29,0,0,1-1.67-.45,2.52,2.52,0,0,0-1.94-1.17l-3.14-.24a2.49,2.49,0,0,0-2.47,1.57L33.2,18a2.53,2.53,0,0,0,.23,2.24A1.29,1.29,0,0,1,33.14,22a66.34,66.34,0,0,0-8.43,7.73,1.29,1.29,0,0,1-1.75.13,2.53,2.53,0,0,0-2.21-.43l-3,.85a2.47,2.47,0,0,0-1.79,2.33l0,3.14a2.56,2.56,0,0,0,1,2,1.27,1.27,0,0,1,.31,1.71,68.21,68.21,0,0,0-5.28,10.14,1.29,1.29,0,0,1-1.6.72,2.54,2.54,0,0,0-2.22.36L5.54,52.54a2.45,2.45,0,0,0-.88,2.8l1,3a2.49,2.49,0,0,0,1.62,1.56,1.29,1.29,0,0,1,.87,1.51A67.73,67.73,0,0,0,6.7,72.72c0,.66-5.52,6.58-5.14,7.36.53-.73,5.64-5.58,6.22-6a2.8,2.8,0,0,0,.4-1.31A66.85,66.85,0,0,1,9.65,61.7a2.77,2.77,0,0,0-1.89-3.25,1,1,0,0,1-.65-.63l-1-3a1,1,0,0,1,.34-1.09L9,51.92a1,1,0,0,1,.91-.14,2.77,2.77,0,0,0,3.41-1.57,66.71,66.71,0,0,1,5.17-9.92,2.76,2.76,0,0,0-.67-3.7,1,1,0,0,1-.4-.83l0-3.14a.94.94,0,0,1,.69-.91l3-.85a1.06,1.06,0,0,1,.91.18,2.77,2.77,0,0,0,3.75-.32,66.24,66.24,0,0,1,8.24-7.55,2.78,2.78,0,0,0,.64-3.7,1,1,0,0,1-.1-.91l1.12-2.95a.93.93,0,0,1,1-.61l3.14.24a1,1,0,0,1,.78.47,2.77,2.77,0,0,0,3.63,1,66.7,66.7,0,0,1,10.34-4.26,2.77,2.77,0,0,0,1.86-3.27,1.07,1.07,0,0,1,.22-.89L58.7,5.88a.94.94,0,0,1,1.11-.24l2.87,1.3a1,1,0,0,1,.58.72,2.77,2.77,0,0,0,3.07,2.17,67.47,67.47,0,0,1,11.18-.5,2.73,2.73,0,0,0,2.87-2.42,1,1,0,0,1,.51-.76l2.74-1.54a1,1,0,0,1,1.13.15L87,7a1,1,0,0,1,.29.87,2.77,2.77,0,0,0,2.14,3.08,66.47,66.47,0,0,1,10.67,3.38,2.77,2.77,0,0,0,3.53-1.3,1,1,0,0,1,.74-.54l3.11-.51a1,1,0,0,1,1,.53l1.36,2.84a1,1,0,0,1,0,.92,2.77,2.77,0,0,0,1,3.63,68,68,0,0,1,8.87,6.81,2.77,2.77,0,0,0,3.76,0,1,1,0,0,1,.88-.25l3.1.58a1,1,0,0,1,.77.84l.3,3.13a1,1,0,0,1-.32.86,2.76,2.76,0,0,0-.34,3.74,66,66,0,0,1,6,9.44,2.77,2.77,0,0,0,3.54,1.27,1,1,0,0,1,.91.07l2.71,1.6a1,1,0,0,1,.43,1.06l-.78,3c-.08.31-2.06,4.64-2,4.91.4-.5,3.15-4.38,3.55-5l.66-2.57a2.45,2.45,0,0,0-1.12-2.71L139,45.05a2.58,2.58,0,0,0-2.25-.16,1.28,1.28,0,0,1-1.64-.58A66.7,66.7,0,0,0,129,34.66a1.3,1.3,0,0,1,.14-1.71,2.6,2.6,0,0,0,.83-2.11l-.31-3.16a2.45,2.45,0,0,0-2-2.16l-3.09-.58a2.48,2.48,0,0,0-2.17.63,1.3,1.3,0,0,1-1.74,0,68.63,68.63,0,0,0-9.07-7,1.29,1.29,0,0,1-.44-1.7,2.54,2.54,0,0,0,0-2.25l-1.37-2.84a2.44,2.44,0,0,0-2.59-1.35l-3.11.51a2.54,2.54,0,0,0-1.83,1.33,1.29,1.29,0,0,1-1.64.6,68,68,0,0,0-10.9-3.45,1.3,1.3,0,0,1-1-1.44,2.53,2.53,0,0,0-.73-2.12L85.81,3.7A2.45,2.45,0,0,0,84.09,3a2.4,2.4,0,0,0-1.19.31"/></clipPath><radialGradient id="radial-gradient" cx="-136.57" cy="288.45" r="0.36" gradientTransform="matrix(204.22, 0, 0, -204.22, 27964.8, 58982.26)" gradientUnits="userSpaceOnUse"><stop offset="0" stop-color="#fff"/><stop offset="1" stop-color="#d0d0d0"/></radialGradient><linearGradient id="New_Gradient_Swatch_1" x1="53.56" y1="129.69" x2="84.94" y2="12.59" gradientUnits="userSpaceOnUse"><stop offset="0" stop-color="#e7344c"/><stop offset="0.25" stop-color="#efcd00"/><stop offset="0.5" stop-color="#009cc1"/><stop offset="0.75" stop-color="#c8d400"/><stop offset="1" stop-color="#ef7d00"/></linearGradient></defs><title>PITKO - Logo_2019</title><path class="cls-1" d="M132.17,116.13l0,3.15a1,1,0,0,1-.7.91l-3,.84a1,1,0,0,1-.91-.18,2.78,2.78,0,0,0-3.75.32,66.32,66.32,0,0,1-8.24,7.56,2.77,2.77,0,0,0-.64,3.7,1,1,0,0,1,.1.91l-1.11,2.94a.92.92,0,0,1-1,.62l-3.14-.24a1,1,0,0,1-.78-.47,2.77,2.77,0,0,0-3.62-1A67.27,67.27,0,0,1,95,139.47a2.77,2.77,0,0,0-1.86,3.27,1,1,0,0,1-.22.88L90.86,146a1,1,0,0,1-1.11.25L86.88,145a1,1,0,0,1-.58-.73,2.76,2.76,0,0,0-3.07-2.16,66.28,66.28,0,0,1-11.17.49A2.74,2.74,0,0,0,69.19,145a1,1,0,0,1-.51.76l-2.75,1.55a1,1,0,0,1-1.13-.15l-2.25-2.21a1,1,0,0,1-.3-.86A2.76,2.76,0,0,0,60.11,141c-1.63-.37-6.23-.71-6.92-.41,2.17.72,4.37,1.35,6.59,1.86a1.28,1.28,0,0,1,1,1.43A2.55,2.55,0,0,0,61.5,146l2.25,2.2.24.2h3L69.41,147a2.55,2.55,0,0,0,1.26-1.86A1.28,1.28,0,0,1,72,144.05a67.15,67.15,0,0,0,11.42-.5,1.32,1.32,0,0,1,1.43,1,2.49,2.49,0,0,0,1.42,1.75l2.86,1.3A2.46,2.46,0,0,0,92,147l2.06-2.38a2.56,2.56,0,0,0,.54-2.2,1.28,1.28,0,0,1,.87-1.51A69.13,69.13,0,0,0,106,136.53a1.28,1.28,0,0,1,1.68.46,2.52,2.52,0,0,0,1.93,1.15l3.14.25a2.46,2.46,0,0,0,2.47-1.58l1.11-2.94a2.53,2.53,0,0,0-.23-2.24,1.29,1.29,0,0,1,.29-1.72,67.85,67.85,0,0,0,8.43-7.73,1.31,1.31,0,0,1,1.75-.14,2.54,2.54,0,0,0,2.21.43l3-.84a2.47,2.47,0,0,0,1.79-2.33,25.49,25.49,0,0,0-1.5-3.35,1.16,1.16,0,0,1,0,.18m2.2-18.73h-.64c-.43,0-.87,0-1.32,0l-.94.06c-.49,0-1,.1-1.53.16l-1,.12c-.6.08-1.23.18-1.86.29l-.92.15c-1,.17-2,.37-3,.59a205.92,205.92,0,0,0-27.39,8c-10.42,3.68-19.88,7.25-28.32,10.61S50.45,124.38,42,128a20.2,20.2,0,0,0-3.07,1.57,1.71,1.71,0,0,0-.64,2.1,8.38,8.38,0,0,0,.62,1.15A13.56,13.56,0,0,0,42,136.27a6.7,6.7,0,0,0,.87.59l.24.13a3.49,3.49,0,0,0,.61.26.73.73,0,0,0,.19.07,2.31,2.31,0,0,0,.72.1,1.93,1.93,0,0,0,.75-.15c10.07-4.35,18.56-8,25.55-10.82s14.1-5.65,21.6-8.37,13.7-4.81,18.74-6.17c.7-.18,1.4-.36,2.09-.52l.66-.16,1.43-.32.73-.15,1.36-.28.67-.13,1.62-.27.33-.06,1.9-.27.49,0,1.34-.15.62,0,1.17-.09c.2,0,.4,0,.59,0l1.24,0H128c.64,0,1.24,0,1.83.06l.41,0c.55,0,1.08.1,1.58.18l.15,0c.53.09,1,.2,1.51.33l.34.09a14.15,14.15,0,0,1,1.35.48,13.22,13.22,0,0,1,3.37,2.26l1.88,1.57a.3.3,0,0,0,.19.08.63.63,0,0,0,.21,0h0a1.44,1.44,0,0,0,.29-.16l.1-.08.23-.19.15-.13c.07-.07.15-.14.22-.22l.17-.18.22-.25.18-.21.23-.29.18-.24.23-.31.18-.26c.07-.12.15-.22.22-.34l.18-.28.21-.35a2.75,2.75,0,0,0,.17-.29c.07-.12.14-.24.2-.36s.09-.16.13-.25l.18-.35.16-.36c.06-.13.11-.25.16-.38s.08-.19.11-.28.09-.26.13-.38l.09-.27c0-.13.07-.27.1-.4s0-.14,0-.21a4,4,0,0,0,.08-.58q.41-6-5.92-8.6a8.62,8.62,0,0,0-1.15-.37c-.14,0-.3-.06-.44-.09l-.92-.17-.58-.06c-.32,0-.65-.06-1-.07l-.67,0ZM60.26,80.92H60a8,8,0,0,0-1.08.15c-1,.21-1.5,1.56-1.69,4.13a106.24,106.24,0,0,0,.15,11.51q0,1.16.09,2.22c0,.24,0,.46,0,.68,0,.48.06.95.09,1.39,0,.26,0,.5.07.75s.07.78.11,1.15.06.5.09.74.09.69.14,1,.07.46.1.69.1.61.16.9.08.42.13.63.12.55.18.81.09.38.14.56.14.49.21.72.11.34.16.5l.24.64c.06.14.12.29.17.43l.28.56a3.9,3.9,0,0,0,.19.35,5,5,0,0,0,.32.51l.18.26c.14.18.29.34.44.5a.63.63,0,0,1,.11.12,5.24,5.24,0,0,0,.61.47l.17.08a2.39,2.39,0,0,0,.48.24l.26.08.44.11.3,0h.42a5.55,5.55,0,0,0,1-.11,9.86,9.86,0,0,0,5-2.87,11.6,11.6,0,0,0,2.82-4,3.94,3.94,0,0,0,.28-.78,1.54,1.54,0,0,0,0-.19,1.11,1.11,0,0,0,0-.36.52.52,0,0,0-.06-.13.35.35,0,0,0-.16-.16.43.43,0,0,0-.16,0,1.29,1.29,0,0,0-.44,0,9.26,9.26,0,0,1-1,.19l-.29,0c-.2,0-.4,0-.56,0a3.28,3.28,0,0,1-.46,0l-.22,0a1.34,1.34,0,0,1-.5-.2,4.23,4.23,0,0,1-1.68-3,36.49,36.49,0,0,1-.4-5.51l0-3.82,0-3.61A36.33,36.33,0,0,0,66.38,84a3.71,3.71,0,0,0-2.53-2.45,10.36,10.36,0,0,0-1.12-.36l-.28-.06a8.8,8.8,0,0,0-1.1-.2h0c-.23,0-.45,0-.68,0h-.38m2.59-14.73-.52,0q-.82.11-1.77.3c-3.07.68-5,3.25-3.78,6.93a7.13,7.13,0,0,0,2.94,3.84l.24.14c.18.09.35.19.52.26l.28.1.46.12a1.53,1.53,0,0,0,.3,0,3.21,3.21,0,0,0,.62,0c1.08,0,2.25-.86,3.55-2.44a12.47,12.47,0,0,0,2.16-4.2c.45-2.18,0-3.65-1.35-4.51a3.76,3.76,0,0,0-1-.42l-.13-.05a6.33,6.33,0,0,0-1.19-.16H63.8c-.3,0-.62,0-.95,0M35.91,79.41s0,0,0,0a9.59,9.59,0,0,1,1.89,1.12c2.59,1.79,4.15,4.59,4.75,8.38a13.26,13.26,0,0,1-2.94,11.25,14.76,14.76,0,0,1-4.26,3.53,4.2,4.2,0,0,1-.55.22l-.29,0a2,2,0,0,1-.42,0H34a3.11,3.11,0,0,1-.44-.06l-.12,0a4.93,4.93,0,0,1-.53-.22l-.05,0a3.72,3.72,0,0,1-.45-.33l-.05-.07a2.11,2.11,0,0,1-.3-.37s-.06-.11-.1-.16-.12-.25-.17-.38,0-.12-.05-.17a3.11,3.11,0,0,1-.1-.61c-.1-5.35-.35-14.82-.56-20.18,0-.07,0-.2,0-.34a.73.73,0,0,0-.75-.69,55.31,55.31,0,0,0-7.07,1.1c-.18,0-.55-.08-.05-.34C30.46,77.37,35.91,79.41,35.91,79.41Zm94.26-8.87a3,3,0,0,1-.31,0,3.41,3.41,0,0,1-.55-.14l-.26-.1a3.78,3.78,0,0,1-.51-.3l-.22-.16a2.75,2.75,0,0,1-.58-.68,1.33,1.33,0,0,1-.15-.32s0-.07,0-.11a1.43,1.43,0,0,1,0-.22v-.12c0-.07,0-.13,0-.2l0-.12a1.22,1.22,0,0,1,.07-.17l.06-.1a.71.71,0,0,1,.1-.14l.09-.09a.67.67,0,0,1,.14-.09l.11-.06a.58.58,0,0,1,.18,0l.12,0a1,1,0,0,1,.34,0h0a2.52,2.52,0,0,1,.64.3c.56.37.95,1.07,1.49,2.85h0a2.7,2.7,0,0,1-.49,0h-.26M94.84,54.49a1.49,1.49,0,0,0,.77-1.3,36.75,36.75,0,0,1,.53-4.51c.52-4.36,1.44-4.82,1.88-5a2,2,0,0,1,.35-.08h.1a3.58,3.58,0,0,1,.48,0H99l.39,0,.14,0,.31.07.15,0,.27.13.11.06a1,1,0,0,1,.29.28,5,5,0,0,1,.8,3.29c0,4-1.75,6.71-5.32,8a23.41,23.41,0,0,1-6.47.89.17.17,0,0,1,0-.34S93.16,55.18,94.84,54.49Zm3.5-17c-2.07.06-4.69,1.6-6.67,4.87-1.72,2.83-1.56,8.2-2.56,13.14a1.15,1.15,0,0,1-.17.41.87.87,0,0,1-.09.11,1.9,1.9,0,0,1-.19.21l-.14.08a2.53,2.53,0,0,1-.23.12l-.18,0a1,1,0,0,1-.29,0l-6.21-.38V55a33.31,33.31,0,0,0-.33-5,3.49,3.49,0,0,0-2.37-2.3,9.84,9.84,0,0,0-1.42-.41c-.14,0-.28-.05-.42-.08a8.8,8.8,0,0,0-1-.1l-.52,0-.26,0a6,6,0,0,0-1,.14c-.92.2-1.42,1.47-1.59,3.88,0,0-.05,1.65-.07,2.55a.63.63,0,0,0,.55.64,63.39,63.39,0,0,1,7,1.38A.17.17,0,0,1,80,56c-4-.31-9.84-.5-11.5-.52-.27,0-.53,0-.92,0l-4.07-.12h-.4L59.8,55.3l-.84,0-3.44,0h-.77l-1.92,0-.93,0c-.58,0-1.15,0-1.71.06l-.88,0-1.8.11-.62,0c-.78.06-1.54.13-2.27.22-.15,0-.3,0-.45.06L42.48,56l-.69.12-1.35.27-.69.16c-.44.1-.87.22-1.29.34l-.58.16c-.59.19-1.17.39-1.73.61h0Q28.12,60.62,24.6,70c-.25.71-.5,1.42-.72,2.15a2.5,2.5,0,0,1-1.65,1.62,40.36,40.36,0,0,0-7.9,3.44c-4.26,2.43-7.21,5-8.77,8a8.21,8.21,0,0,0-1.21,5.92A10,10,0,0,0,7,95.46a3.61,3.61,0,0,0,.35.33,13.42,13.42,0,0,0,4.3,2.39,10.21,10.21,0,0,0,1,.19l.26,0,.54,0h.09a1.46,1.46,0,0,0,.48-.09l0,0a.45.45,0,0,0,.24-.23,25.46,25.46,0,0,0,.29-2.58,22.61,22.61,0,0,1,.53-4.35A14.17,14.17,0,0,1,20,83.24l2-1.55a109,109,0,0,0-.28,13c0,2,.18,4.36.34,7.23s.36,5.18.36,7,1.64,23.5-1.56,24.94a3.44,3.44,0,0,1-.71.22l-.23,0a3.33,3.33,0,0,1-.56,0h-.22a5.5,5.5,0,0,1-1-.09L18,134a10.05,10.05,0,0,1-1-.26h0a10.8,10.8,0,0,1-1.08-.4l-.2-.08c-.35-.15-.69-.3-1-.47l-.19-.09c-.34-.17-.67-.35-1-.53h0c-.33-.18-.64-.37-.94-.55l-.17-.1-.79-.49-.17-.12-.63-.41a.64.64,0,0,0-.36-.1l-.1,0a.51.51,0,0,0-.23.14.43.43,0,0,0-.11.12,2.51,2.51,0,0,0-.22.34c0,.06-.06.11-.09.18a8,8,0,0,0-.29.77,11.25,11.25,0,0,0-.05,5.83,9.65,9.65,0,0,0,2.5,4.23l.45.49.09.09.51.49.11.1c.19.16.4.33.62.49l.08.06c.23.15.46.3.72.45l.07,0c.27.14.56.27.87.4l.18.06a10.06,10.06,0,0,0,1,.32l.19,0a11,11,0,0,0,1.24.21H18a12.25,12.25,0,0,0,1.4.07h.24l.75,0h.37c.39,0,.8-.06,1.22-.12,5.11-.62,8.85-2.41,10.6-9.44,1.45-5.84-.66-15.87-1.17-21.11a2.49,2.49,0,0,1,2.1-2.68,20.72,20.72,0,0,0,7.63-3,24.45,24.45,0,0,0,8.51-9.11,20.12,20.12,0,0,0,2.14-12.4c-1-5.74-3.53-10-7.6-12.78-.38-.25-.76-.49-1.16-.71l-.41-.2c-.27-.14-.54-.29-.82-.41s-.34-.14-.51-.21-.52-.22-.79-.31l-.58-.18-.79-.23c-.21-.06-.42-.1-.63-.15s-.54-.13-.82-.18L37,72l-.84-.12-.71-.06c-.29,0-.58,0-.87-.06s-.51,0-.76,0-.74,0-1.13,0a65.67,65.67,0,0,0-7.44,1.08c-.2,0-.26-.26-.06-.33a58,58,0,0,1,7.83-2,.81.81,0,0,0,.58-.42c1.59-2.85,3.89-4.5,7.44-5.79,1.85-.6,6.41-1.7,15.42-1.84.46,0,.95,0,1.45,0h1.71l.78,0,1.07,0,.82,0,1.13,0,.86,0,1.17,0,.88,0,1.29.06.79,0,1.52.07.57,0,2.07.1c0,10.63.06,25,.23,28.36,0,.73,0,1.42.09,2.09,0,.23,0,.43,0,.64,0,.45.06.89.09,1.31l.06.7c0,.37.07.74.11,1.09s0,.46.08.69.08.64.13,1,.06.44.1.66.09.57.14.84l.12.6c.06.26.12.51.17.76s.1.36.14.53.13.46.2.67.1.33.15.48.15.4.22.6.11.27.17.4.21.43.32.64.14.27.2.36a3.78,3.78,0,0,0,.22.33l.17.25a4.62,4.62,0,0,0,.41.46l.11.12a4.6,4.6,0,0,0,.56.45L77,107a4.51,4.51,0,0,0,.44.22l.25.07a3.06,3.06,0,0,0,.41.1l.29,0a2.54,2.54,0,0,0,.39,0,4.24,4.24,0,0,0,.92-.1,9.21,9.21,0,0,0,4.67-2.7A10.85,10.85,0,0,0,87,100.91a4.3,4.3,0,0,0,.27-.74,1.24,1.24,0,0,0,0-.18.93.93,0,0,0,0-.33.52.52,0,0,0-.06-.13.36.36,0,0,0-.15-.15l-.15,0a.94.94,0,0,0-.41,0c-.36.08-.68.14-1,.18l-.24,0c-.2,0-.4,0-.57,0a2.72,2.72,0,0,1-.42,0l-.21,0a1.3,1.3,0,0,1-.48-.19A4,4,0,0,1,82,96.54a36.75,36.75,0,0,1-.37-5.19l0-28h0c.76,0,1.52,0,2.28,0s1.63,0,2.43-.06a1,1,0,0,1,.34.06.85.85,0,0,1,.22,0,1.38,1.38,0,0,1,.25.17,1,1,0,0,1,.17.12,1.92,1.92,0,0,1,.18.28c0,.05.07.09.09.15a1.31,1.31,0,0,1,.06.53,165.54,165.54,0,0,0-.61,24.76c.32,4.37,1,7.42,2.12,9.05a4.79,4.79,0,0,0,.55.68,1.59,1.59,0,0,0,.13.13,3.33,3.33,0,0,0,.6.48l.11.06a3,3,0,0,0,.62.26l.12,0a3.08,3.08,0,0,0,.75.09h.18a4.26,4.26,0,0,0,.84-.1c2-.44,2.57-1.72,2.65-5.14,0-.84,0-2.24-.14-4.15-.09-.43-.12-1.71-.18-2.28.54.7,1,1.33,1.56,1.94l.21.26c.48.56.95,1.08,1.41,1.57.08.1.17.19.25.28.46.47.9.91,1.34,1.32l.2.18c.45.41.9.79,1.34,1.12,0,0,0,0,0,0,.44.32.86.6,1.28.85l.17.11a12.2,12.2,0,0,0,1.21.59l.21.08a7.42,7.42,0,0,0,1.17.35l.18,0a6.11,6.11,0,0,0,1.2.12h0a6.4,6.4,0,0,0,1.43-.16,5.75,5.75,0,0,0,.87-.26,10.59,10.59,0,0,0,5.35-5.72c.15-.3.83-1.42,1.24-2.33a12.16,12.16,0,0,0,.71,1h0a11.84,11.84,0,0,0,1,1.11l0,0a12.78,12.78,0,0,0,1,.91L119,92a10.19,10.19,0,0,0,1,.71l.2.11a10.09,10.09,0,0,0,1,.52l.29.12a9.66,9.66,0,0,0,1,.34c.19.06.38.1.56.14a9.3,9.3,0,0,0,1,.19l.26,0c.29,0,.58,0,.88.06s.42,0,.64,0,.64,0,1-.07a4.46,4.46,0,0,0,.51-.07l.5-.08.9-.23.47-.13a13,13,0,0,0,1.38-.53,18.05,18.05,0,0,0,2.67-1.64A15.82,15.82,0,0,0,136,89a16.58,16.58,0,0,0,1.72-2.75,18.56,18.56,0,0,0,1.72-4.91c.13-.66.22-1.31.29-1.95s.09-1.28.09-1.89,0-1.21-.08-1.78a15.8,15.8,0,0,0-.23-1.64l-.06-.17a.8.8,0,0,0-1-.53,54.45,54.45,0,0,1-6.19,1.29c-.24,0-.32-.2-.1-.26A34.27,34.27,0,0,0,142,69.17c.24-.17.47-.34.69-.52l.09-.08q.57-.45,1.11-.93l.22-.21c.31-.28.62-.56.9-.85.13-.12.23-.25.35-.37s.47-.49.69-.74l.38-.46c.18-.23.38-.45.55-.68l.34-.5c.16-.22.33-.45.47-.68s.31-.57.45-.85a2,2,0,0,0,.18-.83V55.08c0-.68-.62-.65-.94-.14a54.39,54.39,0,0,1-6.63,8.81.6.6,0,0,1-.08.08,17.77,17.77,0,0,1-4.06,3.33,9,9,0,0,0-2.14-2.75A9.8,9.8,0,0,0,132.45,63q-.39-.18-.78-.33a3.66,3.66,0,0,0-.79-.2l-.27,0a3.46,3.46,0,0,0-.56,0l-.27,0a5.21,5.21,0,0,0-.55.08l-.26,0-.65.2-.11,0a5.88,5.88,0,0,0-.72.33l-.19.12-.46.3a1.66,1.66,0,0,0-.21.16,4.09,4.09,0,0,0-.38.33,1.21,1.21,0,0,0-.16.16,4,4,0,0,0-.43.51h0a5.13,5.13,0,0,0-.76,1.61,7.6,7.6,0,0,0-.17.8,7.36,7.36,0,0,0,0,1.47,9.64,9.64,0,0,0,.27,1.58,7.85,7.85,0,0,0,.39,1c.05.11.11.21.16.31s.22.43.34.62a3.71,3.71,0,0,0,.23.32,4.83,4.83,0,0,0,.37.49,3.9,3.9,0,0,0,.28.29,5.34,5.34,0,0,0,.44.39c.13.11.27.2.41.3l.39.23.38.17a4.77,4.77,0,0,0,.57.2l.38.1a3.94,3.94,0,0,0,.69.08c.12,0,.24,0,.36,0a5.66,5.66,0,0,0,1.14-.08c.1.79.23,1.84.31,3,.06.85.09,1.78.08,2.73a19.34,19.34,0,0,1-.47,4.15,8,8,0,0,1-.26.83,1.89,1.89,0,0,1-.11.25c-.07.18-.15.36-.23.54s-.11.19-.16.28a4,4,0,0,1-.27.44c-.06.1-.13.18-.19.27a3.65,3.65,0,0,1-.31.36c-.08.09-.16.16-.24.24a3.44,3.44,0,0,1-.36.28l-.22.15a2.86,2.86,0,0,1-.43.21l-.33.12a2.43,2.43,0,0,1-.54.08,1.26,1.26,0,0,1-.27,0,3.67,3.67,0,0,1-.91-.1c-2.39-.52-4-4.89-4.37-9.89,0-.5-.06-1-.08-1.51,0-1,0-2,.07-3,0-.53.09-1.06.16-1.58a23,23,0,0,1,.55-2.88c.08-.34.14-.64.19-.92,0-.09,0-.16,0-.25a5,5,0,0,0,.06-.51,1.92,1.92,0,0,0,0-.24c0-.13,0-.26,0-.37a.71.71,0,0,0,0-.21,2.16,2.16,0,0,0,0-.27,1.09,1.09,0,0,0-.08-.15.72.72,0,0,0-.09-.2,1.14,1.14,0,0,0-.11-.11.81.81,0,0,0-.14-.12s-.09,0-.14-.07l-.16-.06-.17,0H122l-.22,0-.21,0-.24.07-.22.07-.27.1-.24.1-.28.14-.24.12-.31.17-.24.14-.32.19-.24.15-.32.21-.24.15-.24.17-.31.21a8,8,0,0,0-1.25,1.14c-.12.13-.22.27-.33.41a8.14,8.14,0,0,0-.64.9c-.11.18-.23.35-.33.54a13,13,0,0,0-.58,1.25c0,.1-.1.2-.13.3a14.61,14.61,0,0,0-.49,1.59c0,.21-.09.43-.14.65s-.13.66-.18,1-.08.51-.11.77-.06.57-.08.85,0,.53,0,.78a.35.35,0,0,0,0-.06A40.9,40.9,0,0,1,112,84.92c-.83,2-1.53,3.23-2.17,3.56a1.93,1.93,0,0,1-1,.18h0c-3.63.38-9.35-2.85-10.94-4.56a.22.22,0,0,1,.25-.36,6.75,6.75,0,0,0,6.67-.58A24,24,0,0,0,108.17,79c1.92-2.94,2.63-5.54,2.1-7.93a4.76,4.76,0,0,0-2.9-3.28,9.64,9.64,0,0,0-.93-.4l-.31-.1c-.22-.07-.44-.15-.67-.2l-.41-.08-.65-.1c-.15,0-.31,0-.47,0s-.49,0-.75,0c-1.45.13-2.13.54-2,1.33a11.37,11.37,0,0,1-2,7.58,22.89,22.89,0,0,1-2.1,2.89,1.24,1.24,0,0,1-.4.3l-.12,0a1.11,1.11,0,0,1-.34.08h-.12a1.17,1.17,0,0,1-.42-.09l0,0a1.55,1.55,0,0,1-.32-.2l-.09-.1a1.34,1.34,0,0,1-.19-.26L95,78.32a1.4,1.4,0,0,1-.09-.47c0-3.25.19-9.32.27-12.52a1.89,1.89,0,0,0-2-1.94c-1.73.12-4,.26-4.9.19-.23,0-.27-.29,0-.32a30.18,30.18,0,0,0,11.3-3.47c.31-.19.6-.37.85-.55,3.85-2.64,6.65-6.29,6.77-10.68A12.87,12.87,0,0,0,105,41a8.86,8.86,0,0,0-.59-.75l-.21-.22c-.15-.16-.29-.31-.45-.46l-.28-.23c-.14-.13-.29-.25-.44-.37l-.33-.22c-.15-.09-.3-.2-.46-.29s-.25-.11-.37-.18-.32-.16-.49-.22-.27-.09-.4-.14-.34-.12-.51-.16l-.45-.09c-.18,0-.35-.07-.54-.09s-.31,0-.47,0l-.6,0ZM82.9,3.31,80.16,4.85a2.55,2.55,0,0,0-1.27,1.86,1.26,1.26,0,0,1-1.32,1.13,68.32,68.32,0,0,0-11.43.51,1.33,1.33,0,0,1-1.43-1A2.5,2.5,0,0,0,63.3,5.58l-2.87-1.3a2.43,2.43,0,0,0-2.86.64l-2,2.38A2.53,2.53,0,0,0,55,9.5,1.28,1.28,0,0,1,54.1,11a68.13,68.13,0,0,0-10.57,4.36,1.29,1.29,0,0,1-1.67-.45,2.52,2.52,0,0,0-1.94-1.17l-3.14-.24a2.49,2.49,0,0,0-2.47,1.57L33.2,18a2.53,2.53,0,0,0,.23,2.24A1.29,1.29,0,0,1,33.14,22a66.34,66.34,0,0,0-8.43,7.73,1.29,1.29,0,0,1-1.75.13,2.53,2.53,0,0,0-2.21-.43l-3,.85a2.47,2.47,0,0,0-1.79,2.33l0,3.14a2.56,2.56,0,0,0,1,2,1.27,1.27,0,0,1,.31,1.71,68.21,68.21,0,0,0-5.28,10.14,1.29,1.29,0,0,1-1.6.72,2.54,2.54,0,0,0-2.22.36L5.54,52.54a2.45,2.45,0,0,0-.88,2.8l1,3a2.49,2.49,0,0,0,1.62,1.56,1.29,1.29,0,0,1,.87,1.51A67.73,67.73,0,0,0,6.7,72.72c0,.66-5.52,6.58-5.14,7.36.53-.73,5.64-5.58,6.22-6a2.8,2.8,0,0,0,.4-1.31A66.85,66.85,0,0,1,9.65,61.7a2.77,2.77,0,0,0-1.89-3.25,1,1,0,0,1-.65-.63l-1-3a1,1,0,0,1,.34-1.09L9,51.92a1,1,0,0,1,.91-.14,2.77,2.77,0,0,0,3.41-1.57,66.71,66.71,0,0,1,5.17-9.92,2.76,2.76,0,0,0-.67-3.7,1,1,0,0,1-.4-.83l0-3.14a.94.94,0,0,1,.69-.91l3-.85a1.06,1.06,0,0,1,.91.18,2.77,2.77,0,0,0,3.75-.32,66.24,66.24,0,0,1,8.24-7.55,2.78,2.78,0,0,0,.64-3.7,1,1,0,0,1-.1-.91l1.12-2.95a.93.93,0,0,1,1-.61l3.14.24a1,1,0,0,1,.78.47,2.77,2.77,0,0,0,3.63,1,66.7,66.7,0,0,1,10.34-4.26,2.77,2.77,0,0,0,1.86-3.27,1.07,1.07,0,0,1,.22-.89L58.7,5.88a.94.94,0,0,1,1.11-.24l2.87,1.3a1,1,0,0,1,.58.72,2.77,2.77,0,0,0,3.07,2.17,67.47,67.47,0,0,1,11.18-.5,2.73,2.73,0,0,0,2.87-2.42,1,1,0,0,1,.51-.76l2.74-1.54a1,1,0,0,1,1.13.15L87,7a1,1,0,0,1,.29.87,2.77,2.77,0,0,0,2.14,3.08,66.47,66.47,0,0,1,10.67,3.38,2.77,2.77,0,0,0,3.53-1.3,1,1,0,0,1,.74-.54l3.11-.51a1,1,0,0,1,1,.53l1.36,2.84a1,1,0,0,1,0,.92,2.77,2.77,0,0,0,1,3.63,68,68,0,0,1,8.87,6.81,2.77,2.77,0,0,0,3.76,0,1,1,0,0,1,.88-.25l3.1.58a1,1,0,0,1,.77.84l.3,3.13a1,1,0,0,1-.32.86,2.76,2.76,0,0,0-.34,3.74,66,66,0,0,1,6,9.44,2.77,2.77,0,0,0,3.54,1.27,1,1,0,0,1,.91.07l2.71,1.6a1,1,0,0,1,.43,1.06l-.78,3c-.08.31-2.06,4.64-2,4.91.4-.5,3.15-4.38,3.55-5l.66-2.57a2.45,2.45,0,0,0-1.12-2.71L139,45.05a2.58,2.58,0,0,0-2.25-.16,1.28,1.28,0,0,1-1.64-.58A66.7,66.7,0,0,0,129,34.66a1.3,1.3,0,0,1,.14-1.71,2.6,2.6,0,0,0,.83-2.11l-.31-3.16a2.45,2.45,0,0,0-2-2.16l-3.09-.58a2.48,2.48,0,0,0-2.17.63,1.3,1.3,0,0,1-1.74,0,68.63,68.63,0,0,0-9.07-7,1.29,1.29,0,0,1-.44-1.7,2.54,2.54,0,0,0,0-2.25l-1.37-2.84a2.44,2.44,0,0,0-2.59-1.35l-3.11.51a2.54,2.54,0,0,0-1.83,1.33,1.29,1.29,0,0,1-1.64.6,68,68,0,0,0-10.9-3.45,1.3,1.3,0,0,1-1-1.44,2.53,2.53,0,0,0-.73-2.12L85.81,3.7A2.45,2.45,0,0,0,84.09,3a2.4,2.4,0,0,0-1.19.31"/><g class="cls-2"><rect class="cls-3" x="1.18" y="3" width="147.28" height="145.4"/></g><path class="cls-4" d="M112,118.16c-.47.36-1.2.84-2.09,1.48l-1.53,1c-.56.34-1.16.74-1.81,1.13-1.31.79-2.82,1.61-4.48,2.46s-3.52,1.64-5.5,2.42-4.12,1.44-6.35,2.06l-1.67.42-1.78.38-3.52.61-1.81.21c-.61.06-1.21.17-1.82.19l-1.84.12c-.31,0-.61,0-.92,0h-.92l-1.84,0c-.62,0-1.23,0-1.84-.06H72c-1.83.75-3.75,1.56-5.78,2.41.67.11,1.35.21,2,.29l1.91.21c.64.06,1.29.08,1.93.12s1.29.09,1.94.08H77l1-.06,1.94-.15c.64,0,1.28-.14,1.91-.22l1.91-.27c1.26-.23,2.47-.49,3.73-.77l1.76-.46,1.78-.53a49,49,0,0,0,6.49-2.54,49.59,49.59,0,0,0,9.75-6c.61-.49,1.17-1,1.68-1.39l1.37-1.24c.81-.77,1.42-1.39,1.82-1.83l.62-.67-.73.54M45.16,41.63,43,43.36a.57.57,0,0,0-.09.81l4.48,5.56a.58.58,0,0,0,.81.08l2.15-1.73a.58.58,0,1,0-.72-.9l-1.27,1a.56.56,0,0,1-.44.13.62.62,0,0,1-.36-.23l-.8-1a.52.52,0,0,1-.13-.38.55.55,0,0,1,.23-.42l1.25-1a.57.57,0,1,0-.72-.89l-1.26,1a.53.53,0,0,1-.5.12.58.58,0,0,1-.31-.21l-.79-1a.53.53,0,0,1-.14-.42.56.56,0,0,1,.23-.39l1.25-1a.58.58,0,0,0,.08-.81.57.57,0,0,0-.44-.22.53.53,0,0,0-.36.13m15.48-.22a.58.58,0,1,0,.18,0l-.18,0M49,39a2.07,2.07,0,0,0-.68,2.85,2.48,2.48,0,0,0,.75.79,3.91,3.91,0,0,0,1.87.5,10,10,0,0,1,1.19.12,1.28,1.28,0,0,1,.89.57.9.9,0,0,1-.3,1.26.93.93,0,0,1-1.27-.31.58.58,0,0,0-.79-.19.57.57,0,0,0-.18.79A2.07,2.07,0,0,0,54,43.24a2.36,2.36,0,0,0-1.31-1.06,6.53,6.53,0,0,0-1.68-.26,3.56,3.56,0,0,1-1.25-.24,1.12,1.12,0,0,1-.47-.42.93.93,0,0,1,.3-1.27.93.93,0,0,1,1.27.31.57.57,0,1,0,1-.6,2.06,2.06,0,0,0-1.77-1A2.12,2.12,0,0,0,49,39m7.54-3.76L54.88,36l-1.69.73a.58.58,0,0,0-.31.76.59.59,0,0,0,.76.3l.56-.24a.64.64,0,0,1,.46-.05.66.66,0,0,1,.42.44l2.32,5.37a.57.57,0,0,0,.75.31.58.58,0,0,0,.31-.76l-2.33-5.4a.76.76,0,0,1-.06-.5.69.69,0,0,1,.42-.4l.54-.23a.58.58,0,0,0-.23-1.1.59.59,0,0,0-.23,0m24.27-1.94a.59.59,0,0,0,.45.68l1.25.26a1,1,0,0,1,.63.34.57.57,0,0,1,0,.59L80.6,40.41a.59.59,0,0,0,.27.77.57.57,0,0,0,.77-.27l3.21-6.62a.58.58,0,0,0-.27-.77l-.12,0h0l-2.92-.62H81.4a.58.58,0,0,0-.56.46m-14.65-.59a2.08,2.08,0,0,0-1.73,2.37.58.58,0,1,0,1.14-.18.92.92,0,0,1,1.82-.29l.14.91a.93.93,0,0,1-.76,1.06A2.06,2.06,0,0,0,65.07,39l.26,1.71a.58.58,0,0,0,.66.47l3-.46a.58.58,0,1,0-.18-1.14l-1.71.27a.71.71,0,0,1-.54-.09.7.7,0,0,1-.25-.49l-.07-.45A.91.91,0,0,1,67,37.73a2.07,2.07,0,0,0,1.73-2.38l-.14-.9a2.07,2.07,0,0,0-2-1.76l-.32,0m11.7-.18-1.15,1a.57.57,0,0,0-.09.81.58.58,0,0,0,.59.19c.12,0,.19,0,.24,0s.06.18,0,.3L77,40a.57.57,0,1,0,1.14.11L78.84,33a.56.56,0,0,0-.51-.62h-.07a.64.64,0,0,0-.37.13M71.73,38.4l-.08-4.14a.93.93,0,0,1,1.85,0l.07,4.15a.92.92,0,0,1-.9.94h0a.93.93,0,0,1-.92-.91m.81-6.23a2.07,2.07,0,0,0-2,2.11l.08,4.14a2.07,2.07,0,1,0,4.14-.07l-.07-4.15a2.07,2.07,0,0,0-2.07-2Zm8-13.76a60.58,60.58,0,0,0-9.43-.21,60.26,60.26,0,0,0-7.07.93,22.71,22.71,0,0,1-3.18-6,22.7,22.7,0,0,1-.36,6.82l-.85.21c-.74.21-1.5.45-2.24.67s-1.47.5-2.2.75l-1.09.39-1.06.44c-1.43.56-2.81,1.22-4.18,1.88l-2,1.08c-.53.29-1,.61-1.56.91a22.38,22.38,0,0,1-5.12-4.6,22.43,22.43,0,0,1,2,6.64c-1.55,1.08-3,2.22-4.46,3.41a56.74,56.74,0,0,0-7.41,7.65c-2.76-.31-6.63-2.61-6.63-2.61S27,39.94,28,42.54c-.41.6-.81,1.19-1.19,1.79a55.85,55.85,0,0,0-5.89,12.31c-2.64.85-7.51-.08-7.51-.08s4.64,2.09,6.26,4.34a55.52,55.52,0,0,0-1.46,8.81c.42-.18.86-.35,1.3-.52A59.19,59.19,0,0,1,22.2,58.43a58.19,58.19,0,0,1,6.55-12.84A57.36,57.36,0,0,1,39.53,33.78a55.6,55.6,0,0,1,14.69-8.65l1-.41,1-.36c.69-.23,1.38-.51,2.07-.7l2.09-.61,2.21-.53a60,60,0,0,1,8.73-1.26,54.56,54.56,0,0,1,17.48,1.68l1,.27,1,.32c.69.22,1.39.41,2.07.67l2,.73,2,.82a59,59,0,0,1,7.48,3.93,61.74,61.74,0,0,1,6.6,4.86A57.2,57.2,0,0,1,116.7,40a62.66,62.66,0,0,1,4.56,5.9,55.27,55.27,0,0,1,3.52,6c.25.5.51,1,.74,1.49s.44,1,.66,1.49c.33.71.6,1.42.86,2.12.44-.26,7.24-5.71,7.24-5.71s-4.83,1.36-7.52.72l-.39-.87a59,59,0,0,0-3.4-6.37c-.68-1-1.35-2.14-2.13-3.17s-1.51-2-2.31-3c.74-2.68,3.75-6.17,3.75-6.17s-3.7,2.65-6.43,3.18c-1-1-2-2.06-3.1-3a59.41,59.41,0,0,0-6.8-5.23c-.92-.59-1.87-1.16-2.83-1.71a22.5,22.5,0,0,1,1.43-6.83,22.09,22.09,0,0,1-4.74,5.06,55.92,55.92,0,0,0-15.64-5,22.6,22.6,0,0,1-.93-6.75,22.85,22.85,0,0,1-2.65,6.27"/></svg>